<?xml version="1.0" encoding="utf-8"?>
<!-- Generator: Adobe Adobe Illustrator 24.2.0, SVG Export Plug-In . SVG Version: 6.00 Build 0)  -->
<svg version="1.1" id="Layer_1" xmlns="http://www.w3.org/2000/svg" xmlns:xlink="http://www.w3.org/1999/xlink" x="0px" y="0px"
	 width="79.5px" height="80px" viewBox="0 0 79.5 80" style="enable-background:new 0 0 79.5 80;" xml:space="preserve">
<style type="text/css">
	.st0{fill-rule:evenodd;clip-rule:evenodd;fill:#44AED7;}
	.st1{fill-rule:evenodd;clip-rule:evenodd;fill:#FFFFFE;}
	.st2{fill-rule:evenodd;clip-rule:evenodd;fill:#00679B;}
</style>
<g id="Website-Logo-White">
	<g id="JMSS_Left-Aligned_CMYK" transform="translate(1.000000, 0.000000)">
		<g id="Group" transform="translate(0.232257, 0.027287)">
			<path id="Fill-24" class="st0" d="M78.3,39.9c0,22-17.9,39.9-39.9,39.9c-22,0-39.9-17.9-39.9-39.9C-1.6,17.9,16.3,0,38.3,0
				C60.4,0,78.3,17.9,78.3,39.9"/>
			<path id="Fill-25" class="st1" d="M39.8,79.2c0.6,0,1.1,0,1.7-0.1c0,0,0,0,0,0C40.9,79.1,40.3,79.2,39.8,79.2"/>
			<path id="Fill-26" class="st1" d="M-0.5,30.4c0,0.2-0.1,0.4-0.1,0.6C-0.6,30.9-0.5,30.6-0.5,30.4C-0.5,30.4-0.5,30.4-0.5,30.4"/>
			<path id="Fill-27" class="st1" d="M0.5,51.9C0.9,52.9,1.3,54,1.7,55c-0.8-1.8-1.4-3.7-2-5.6C0,50.2,0.2,51,0.5,51.9"/>
			<path id="Fill-28" class="st1" d="M2.6,56.8C2.3,56.2,2,55.6,1.7,55C2,55.6,2.3,56.2,2.6,56.8"/>
			<path id="Fill-29" class="st1" d="M61.7,62c1-0.4,2-0.8,2.9-1.3c0,0,0,0,0,0c-1,0.5-2,0.9-3.1,1.3C61.6,62.1,61.7,62.1,61.7,62"
				/>
			<path id="Fill-30" class="st1" d="M66.6,59.7c0.7-0.4,1.4-0.8,2-1.3C68,58.9,67.3,59.3,66.6,59.7C66.6,59.7,66.6,59.7,66.6,59.7"
				/>
			<path id="Fill-32" class="st1" d="M1.9,47.1c-1.1-1.7-2-3.6-2.6-5.5C-0.1,43.5,0.8,45.4,1.9,47.1"/>
			<path id="Fill-33" class="st1" d="M20.4,61c2.7,1.1,5.4,1.9,8.2,2.6c0,0,0,0,0,0C25.8,62.9,23.1,62.1,20.4,61"/>
			<path id="Fill-34" class="st1" d="M31.7,64.2c0.2,0,0.4,0.1,0.6,0.1C32.1,64.3,31.9,64.3,31.7,64.2
				C31.7,64.2,31.7,64.2,31.7,64.2"/>
			<path id="Fill-35" class="st1" d="M36.2,64.9c0.2,0,0.3,0,0.5,0c-0.2,0-0.5,0-0.7-0.1C36,64.9,36.1,64.9,36.2,64.9"/>
			<path id="Fill-36" class="st1" d="M74.6,56.5c0-0.1,0.1-0.2,0.1-0.3c0,0,0,0,0-0.1c0-0.1,0.1-0.2,0.1-0.2
				C74.7,56.1,74.7,56.3,74.6,56.5"/>
			<path id="Fill-37" class="st1" d="M66.2,68.3c0.1-0.1,0.2-0.2,0.3-0.3C66.4,68.1,66.3,68.2,66.2,68.3
				C66.2,68.3,66.2,68.3,66.2,68.3C66.2,68.3,66.2,68.3,66.2,68.3"/>
			<path id="Fill-38" class="st1" d="M21.5,75.3c-0.6-0.3-1.2-0.6-1.8-0.9C20.2,74.7,20.8,75,21.5,75.3"/>
			<path id="Fill-39" class="st1" d="M16.5,72.5c1,0.7,2,1.3,3.1,1.8c-1.8-1-3.6-2.1-5.3-3.4C15,71.5,15.7,72,16.5,72.5"/>
			<path id="Fill-40" class="st1" d="M55.4,75.5c3.2-1.5,6.2-3.4,9-5.7c0.2-0.2,0.3-0.5,0.4-0.8c0,0,0,0,0,0
				C62.1,71.9,58.9,73.9,55.4,75.5"/>
			<path id="Fill-41" class="st1" d="M44.7,78.7c1.6-0.2,3.2-0.6,4.7-1C47.8,78.2,46.2,78.5,44.7,78.7
				C44.7,78.7,44.7,78.7,44.7,78.7"/>
			<path id="Fill-42" class="st1" d="M67.1,64.5c0,0.1,0,0.2,0,0.3c0,0.6-0.1,1.2-0.3,1.8c1.9-2.6,3.4-5.5,4.5-8.5
				c-0.6,0.5-1.2,1.1-1.9,1.6C68.8,61.3,68,62.9,67.1,64.5"/>
			<path id="Fill-43" class="st1" d="M21.7,3.6c1.2-0.6,2.4-1,3.7-1.4c0.3-0.2,0.6-0.3,0.9-0.5C24.7,2.2,23.2,2.9,21.7,3.6"/>
			<path id="Fill-44" class="st1" d="M28.5,1.2C29.3,1,30.1,0.8,31,0.6c-1.2,0.2-2.3,0.4-3.4,0.7c0.7-0.2,1.4-0.3,2.1-0.5
				C29.2,1,28.9,1.1,28.5,1.2"/>
			<path id="Fill-45" class="st1" d="M55.3,75.6C55.3,75.6,55.3,75.5,55.3,75.6c3.6-1.7,6.8-3.6,9.5-6.5c0,0,0,0,0,0
				c0.3-0.6,0.4-1.2,0.5-1.8C62.7,70.7,59.4,73.6,55.3,75.6"/>
			<path id="Fill-46" class="st1" d="M71,54.7c-0.2,0.9-0.4,1.7-0.7,2.6c0.6-0.5,1.2-1,1.8-1.6c0.9-3.4,1.4-7,1.4-10.5
				c-0.5-0.3-1.1-0.6-1.6-0.9C72,47.8,71.7,51.2,71,54.7"/>
			<path id="Fill-47" class="st1" d="M51.6,7.3c7.6,5.1,13.3,12.7,16.7,21c1.7,4.2,2.9,8.7,3.3,13.3c0.6,0.3,1.1,0.6,1.7,0.9
				c-0.5-8.4-3.4-16.5-8-23.5C60.5,11.7,53.6,5.5,45.1,2.4c-4-1.5-8.4-2.2-12.7-1.9c-1,0.2-2,0.5-3,0.9C37.3,0.4,45.3,3,51.6,7.3"/>
			<path id="Fill-48" class="st1" d="M0.1,28.2C0,28.4-0.1,28.7-0.1,29c0.1-0.4,0.2-0.8,0.4-1.2C0.2,27.9,0.1,28,0.1,28.2"/>
			<path id="Fill-49" class="st1" d="M-0.4,30.2c0,0,0,0.1,0,0.1c0,0.1,0,0.1,0,0.2c0,0,0,0,0,0C-0.4,30.3-0.4,30.2-0.4,30.2"/>
			<path id="Fill-50" class="st1" d="M77.4,48.1c0,0.2-0.1,0.4-0.1,0.6c0.1,0.2,0.1,0.4,0,0.7c0.2-0.7,0.3-1.4,0.5-2.1
				c0.1-0.4,0-0.8-0.1-1.1C77.7,46.7,77.6,47.4,77.4,48.1"/>
			<path id="Fill-51" class="st1" d="M52,36.8c-0.8-1.1-1.6-2.2-2.5-3.2c-1.8-0.5-3.6-1-5.5-1.5c-7.2-1.9-14.6-3.4-22-4.5
				c0.1,0.8,0.1,1.6,0.2,2.5c2.3,0.4,4.5,0.7,6.8,1.2C36.8,32.6,44.4,34.5,52,36.8"/>
			<path id="Fill-52" class="st1" d="M19.7,29.6c-0.1-0.8-0.1-1.6-0.2-2.4c-0.9-0.1-1.7-0.2-2.6-0.3c-2.4-0.3-4.8-0.5-7.3-0.6
				c-0.2,0.8-0.4,1.6-0.5,2.4c1.3,0,2.6,0.1,3.8,0.2C15.2,29,17.4,29.3,19.7,29.6"/>
			<path id="Fill-53" class="st1" d="M53.3,34.7c0.8,1.1,1.6,2.2,2.4,3.3c0.1,0,0.2,0.1,0.3,0.1c4.2,1.4,8.4,2.9,12.4,4.6
				c1.1,0.5,2.3,1.1,3.4,1.6c0-0.9-0.1-1.9-0.2-2.8c-1.6-0.8-3.4-1.5-5-2.2C62.3,37.5,57.9,36,53.3,34.7"/>
			<path id="Fill-54" class="st1" d="M73.5,45.2c0.2,0.1,0.3,0.2,0.5,0.3c0.9,0.5,2.5,1.5,3.2,2.7c0.2-0.7,0.4-1.4,0.6-2.2
				c-0.3-0.7-1-1.3-1.6-1.8c-0.8-0.6-1.7-1.2-2.7-1.8c0.1,0.8,0.1,1.6,0.1,2.4C73.5,45,73.5,45.1,73.5,45.2"/>
			<path id="Fill-55" class="st1" d="M1.9,29c1.1-0.3,2.3-0.4,3.5-0.4c0.7,0,1.4,0,2.1,0C7.6,27.8,7.8,27,8,26.2
				c-1.2,0-2.5,0-3.7,0.2c-1.1,0.1-3.2,0.3-4,1.3c-0.3,0.9-0.5,1.7-0.7,2.6C-0.1,29.5,1.1,29.2,1.9,29"/>
			<path id="Fill-56" class="st1" d="M28.6,63.6C28.6,63.6,28.6,63.6,28.6,63.6c1,0.2,2,0.5,3.1,0.6c0,0,0,0,0,0
				C30.7,64,29.6,63.8,28.6,63.6"/>
			<path id="Fill-57" class="st1" d="M21.9,23.8c-0.1-4.4,0.1-8.8,1-13.1c0-0.1,0-0.2,0.1-0.3c-0.7-0.3-1.4-0.6-2.1-0.9
				c-0.7,2.3-1,4.6-1.2,6.9c-0.4,3.6-0.4,7.2-0.2,10.8c0.9,0.1,1.7,0.2,2.6,0.4C22,26.3,21.9,25,21.9,23.8"/>
			<path id="Fill-58" class="st1" d="M30.9,67.9c2,3.6,4.5,7.3,7.9,9.7c0.8,0.6,1.7,1.1,2.6,1.4c0.4,0,0.8-0.1,1.2-0.1
				c0.7-0.1,1.3-0.2,1.9-0.2c-2.1-0.5-3.9-2-5.3-3.3c-2.1-2.1-3.9-4.6-5.4-7.1c-0.4-0.6-0.7-1.2-1.1-1.9c-1-0.2-2.1-0.4-3.1-0.6
				C30.1,66.5,30.5,67.2,30.9,67.9"/>
			<path id="Fill-59" class="st1" d="M26.9,1.8c-0.2,0-0.4,0.1-0.6,0.1c-0.3,0.1-0.6,0.2-0.9,0.2c-0.4,0.2-0.7,0.5-1,0.8
				c0.2-0.1,0.4-0.2,0.6-0.3C25.6,2.3,26.2,2.1,26.9,1.8"/>
			<path id="Fill-60" class="st1" d="M44.6,79.3c0.8-0.2,1.6-0.4,2.4-0.5c-1.3,0.3-2.6,0.5-3.9,0.6C43.6,79.5,44.1,79.4,44.6,79.3"
				/>
			<path id="Fill-61" class="st1" d="M23.5,8.3c0.6-2,1.6-4.2,3-5.7C25.3,3.3,24,4.1,22.8,5c-0.5,0.8-0.9,1.7-1.3,2.6
				C22.2,7.7,22.9,8,23.5,8.3"/>
			<path id="Fill-62" class="st1" d="M41.5,79.1C41.5,79.1,41.5,79.1,41.5,79.1c0.4,0,0.8,0,1.2-0.1c0.7-0.1,1.3-0.2,2-0.3
				c0,0,0,0,0,0C43.6,78.9,42.5,79,41.5,79.1"/>
			<path id="Fill-63" class="st1" d="M26.5,51c-2.1-6.8-3.6-13.9-4.3-21.1c-0.9-0.1-1.7-0.3-2.6-0.4c0.4,4.2,1.1,8.5,1.9,12.6
				c1.6,7.3,3.8,14.6,7,21.4c1,0.2,2,0.5,3.1,0.6C29.6,60,27.9,55.5,26.5,51"/>
			<path id="Fill-64" class="st1" d="M27.1,1.4c-0.3,0.1-0.6,0.2-0.9,0.3c0.4-0.1,0.9-0.3,1.3-0.4C27.4,1.4,27.3,1.4,27.1,1.4"/>
			<path id="Fill-65" class="st1" d="M26.9,1.8c0.5-0.2,1.1-0.4,1.6-0.6c0.3-0.2,0.7-0.3,1.1-0.4c-0.7,0.2-1.4,0.3-2.1,0.5
				c-0.4,0.1-0.9,0.2-1.3,0.4c-0.3,0.1-0.6,0.3-0.9,0.5c0.3-0.1,0.6-0.2,0.9-0.2C26.4,1.9,26.7,1.9,26.9,1.8"/>
			<path id="Fill-66" class="st1" d="M19.9,60.8c-0.2-0.1-0.4-0.2-0.6-0.3c-0.3-0.1-0.6-0.3-0.9-0.4c-0.1-0.1-0.3-0.1-0.4-0.2
				c-0.4-0.2-0.7-0.3-1.1-0.5c-0.1,0-0.2-0.1-0.3-0.2c-0.4-0.2-0.8-0.4-1.2-0.6c-0.1,0-0.2-0.1-0.3-0.1c-0.4-0.2-0.8-0.4-1.2-0.7
				c-0.1-0.1-0.2-0.1-0.3-0.2c-0.4-0.2-0.8-0.5-1.1-0.7c-0.1-0.1-0.2-0.1-0.3-0.2c-0.2-0.1-0.4-0.3-0.6-0.4c0.4,1,0.7,1.9,1.2,2.8
				c0.3,0.2,0.6,0.4,0.9,0.5c5,2.9,10.6,4.9,16.3,6.1c-0.4-0.7-0.8-1.5-1.1-2.2c-2.8-0.7-5.6-1.5-8.2-2.6
				C20.2,60.9,20,60.9,19.9,60.8"/>
			<path id="Fill-67" class="st1" d="M77.7,46.1c0-0.3,0.1-0.6,0.1-0.9c0,0,0,0,0,0.1C77.8,45.5,77.8,45.7,77.7,46.1
				C77.7,46,77.7,46,77.7,46.1"/>
			<path id="Fill-68" class="st1" d="M69.6,57.8c-0.1,0.1-0.2,0.2-0.4,0.3c-0.1,0.1-0.3,0.2-0.4,0.3c-0.1,0-0.1,0.1-0.2,0.1
				c-0.7,0.4-1.3,0.9-2,1.3c0.1,0.5,0.2,1.1,0.3,1.6c0.9-0.5,1.7-1.1,2.5-1.7c0.3-0.8,0.6-1.6,0.8-2.4c-0.1,0.1-0.2,0.2-0.4,0.3
				C69.8,57.6,69.7,57.7,69.6,57.8"/>
			<path id="Fill-69" class="st1" d="M61.7,62c0,0-0.1,0-0.1,0c-0.3,0.1-0.5,0.2-0.8,0.3c-0.1,0-0.1,0-0.2,0.1
				c-0.4,0.1-0.7,0.3-1.1,0.4c-0.2,0-0.3,0.1-0.5,0.1c-0.4,0.1-0.8,0.2-1.2,0.4c-0.1,0-0.3,0.1-0.4,0.1c-0.4,0.1-0.8,0.2-1.2,0.3
				c-0.1,0-0.3,0.1-0.4,0.1c-0.4,0.1-0.8,0.2-1.2,0.3c-0.1,0-0.3,0.1-0.4,0.1c-0.4,0.1-0.8,0.1-1.1,0.2c-0.2,0-0.4,0.1-0.5,0.1
				c-0.3,0.1-0.6,0.1-0.9,0.1c-0.2,0-0.5,0.1-0.7,0.1c-0.2,0-0.4,0-0.6,0.1c-0.3,0-0.6,0.1-0.9,0.1c-0.2,0-0.4,0-0.6,0.1
				c-0.9,0.1-1.9,0.2-2.8,0.2c0,0-0.1,0-0.1,0c-2.1,0.1-4.2,0.1-6.3,0c-0.1,0-0.1,0-0.2,0c-0.4,0-0.8-0.1-1.2-0.1
				c-0.2,0-0.3,0-0.5,0c-0.3,0-0.7-0.1-1-0.1c-0.2,0-0.3,0-0.5,0c-0.1,0-0.2,0-0.2,0c-0.3,0-0.5-0.1-0.8-0.1c-0.3,0-0.7-0.1-1-0.1
				c-0.1,0-0.1,0-0.2,0c-0.1,0-0.2,0-0.3,0c-0.4-0.1-0.8-0.1-1.3-0.2c0,0-0.1,0-0.1,0c-0.2,0-0.4-0.1-0.6-0.1
				c0.4,0.7,0.7,1.5,1.1,2.2c2.2,0.4,4.5,0.6,6.7,0.7c8.7,0.5,17.7-0.8,25.5-4.7c-0.1-0.6-0.2-1.1-0.4-1.6
				C63.7,61.2,62.7,61.7,61.7,62"/>
			<path id="Fill-70" class="st1" d="M10.3,57.7c-0.4-0.9-0.7-1.9-1.1-2.9c-1.8-1.4-3.5-2.9-5-4.7c0,0-0.1-0.1-0.1-0.1
				c-0.1-0.1-0.3-0.3-0.4-0.4c-0.1-0.1-0.2-0.2-0.3-0.3c-0.1-0.1-0.1-0.2-0.2-0.3c-0.1-0.2-0.2-0.3-0.4-0.5c0,0-0.1-0.1-0.1-0.1
				c-0.1-0.2-0.3-0.4-0.4-0.6c0,0,0,0,0-0.1c-0.1-0.2-0.3-0.4-0.4-0.6c0,0,0,0,0,0c-1.1-1.7-2-3.6-2.6-5.5c0,0,0,0,0,0
				c-0.1-0.2-0.1-0.5-0.2-0.7c0,0,0,0,0,0C-1,40.6-1,40.4-1.1,40.1c0,0,0-0.1,0-0.1c0-0.2-0.1-0.4-0.1-0.7c0,0,0-0.1,0-0.1
				c0-0.2-0.1-0.4-0.1-0.6c0-0.1,0-0.1,0-0.2c0-0.2,0-0.4,0-0.6c0-0.1,0-0.2,0-0.3c0-0.1,0-0.2,0-0.3c-0.1,1.4-0.1,2.9,0,4.3
				C-0.2,48.3,4.7,53.8,10.3,57.7"/>
			<path id="Fill-71" class="st1" d="M72.1,55.7c-0.2,0.8-0.5,1.6-0.7,2.4c1.4-1.2,2.6-2.6,3.7-4.2c1.1-1.6,1.9-3.4,2.3-5.3
				c0-0.2-0.1-0.3-0.2-0.4C76.2,51.1,74.3,53.6,72.1,55.7"/>
			<path id="Fill-72" class="st1" d="M77.7,46.1C77.7,46,77.7,46,77.7,46.1c-0.2,0.7-0.4,1.4-0.6,2.1c0.1,0.1,0.1,0.3,0.2,0.4
				c0-0.2,0.1-0.4,0.1-0.6C77.6,47.4,77.7,46.7,77.7,46.1"/>
			<path id="Fill-73" class="st1" d="M36.2,64.9c-1.5-0.2-3-0.4-4.5-0.7c0,0,0,0,0,0c0.2,0,0.4,0.1,0.6,0.1c0,0,0.1,0,0.1,0
				c0.4,0.1,0.8,0.1,1.3,0.2c0.1,0,0.3,0,0.4,0.1c0.3,0,0.7,0.1,1,0.1c0.3,0,0.5,0.1,0.8,0.1c0.2,0,0.5,0.1,0.7,0.1
				c0.3,0,0.7,0.1,1,0.1c0.2,0,0.3,0,0.5,0c0.4,0,0.8,0.1,1.2,0.1c0.1,0,0.1,0,0.2,0c0.5,0,1,0,1.4,0.1
				C39.4,65.2,37.8,65.1,36.2,64.9"/>
			<path id="Fill-74" class="st1" d="M61.7,62c-3.9,1.5-8.1,2.5-12.3,2.9c0.3,0,0.6,0,0.9-0.1c0.2,0,0.4,0,0.6-0.1
				c0.2,0,0.5-0.1,0.7-0.1c0.3,0,0.6-0.1,0.9-0.1c0.2,0,0.4-0.1,0.5-0.1c0.4-0.1,0.8-0.1,1.1-0.2c0.1,0,0.3-0.1,0.4-0.1
				c0.4-0.1,0.8-0.2,1.2-0.3c0.1,0,0.3-0.1,0.4-0.1c0.4-0.1,0.8-0.2,1.2-0.3c0.1,0,0.3-0.1,0.4-0.1c0.4-0.1,0.8-0.2,1.2-0.4
				c0.2,0,0.3-0.1,0.5-0.1c0.4-0.1,0.7-0.2,1.1-0.4c0.3-0.1,0.7-0.2,1-0.4c1-0.4,2.1-0.8,3.1-1.3c0,0,0,0,0,0
				C63.7,61.2,62.7,61.7,61.7,62"/>
			<path id="Fill-75" class="st1" d="M48.7,65c-0.9,0.1-1.7,0.1-2.6,0.2C47,65.2,47.9,65.1,48.7,65"/>
			<path id="Fill-76" class="st1" d="M41.1,65.2c1.6,0.1,3.2,0.1,4.8,0C44.2,65.3,42.6,65.3,41.1,65.2"/>
			<path id="Fill-77" class="st1" d="M49.4,65c-0.2,0-0.4,0-0.6,0.1C49,65,49.2,65,49.4,65"/>
			<path id="Fill-78" class="st1" d="M46,65.2c0,0-0.1,0-0.1,0C45.9,65.2,46,65.2,46,65.2"/>
			<path id="Fill-79" class="st1" d="M72.1,55.7C72.1,55.7,72.1,55.7,72.1,55.7c2.2-2.1,4-4.6,5-7.5c0,0,0,0,0,0
				C76.1,51,74.3,53.5,72.1,55.7"/>
			<path id="Fill-80" class="st1" d="M66.6,59.7c0.7-0.4,1.4-0.8,2-1.3c0.1,0,0.1-0.1,0.2-0.1c0.1-0.1,0.3-0.2,0.4-0.3
				c0.1-0.1,0.2-0.2,0.4-0.3c0.1-0.1,0.2-0.1,0.2-0.2c0.1-0.1,0.3-0.2,0.4-0.3c0,0,0,0,0,0C69.1,58.1,67.9,59,66.6,59.7
				C66.6,59.7,66.6,59.7,66.6,59.7"/>
			<path id="Fill-81" class="st1" d="M12,56.7c0.1,0.1,0.2,0.1,0.3,0.2c0.4,0.2,0.8,0.5,1.1,0.7c0.1,0.1,0.2,0.1,0.3,0.2
				c0.4,0.2,0.8,0.5,1.2,0.7c0.1,0,0.2,0.1,0.3,0.1c0.4,0.2,0.8,0.4,1.2,0.6c0.1,0.1,0.2,0.1,0.3,0.2c0.4,0.2,0.7,0.4,1.1,0.5
				c0.1,0.1,0.3,0.1,0.4,0.2c0.3,0.1,0.6,0.3,0.9,0.4c0.2,0.1,0.4,0.2,0.6,0.3c0.2,0.1,0.4,0.1,0.5,0.2c2.7,1.1,5.4,1.9,8.2,2.6
				c0,0,0,0,0,0c-6.1-1.4-12-3.8-17.2-7.3c0,0,0,0,0,0C11.6,56.5,11.8,56.6,12,56.7"/>
			<path id="Fill-82" class="st1" d="M-1.4,37.6c0,0.1,0,0.2,0,0.3c0,0.2,0,0.4,0,0.6c0,0.1,0,0.1,0,0.2c0,0.2,0.1,0.4,0.1,0.6
				c0,0,0,0.1,0,0.1c0,0.2,0.1,0.4,0.1,0.7c0,0,0,0.1,0,0.1c0,0.2,0.1,0.5,0.2,0.7c0,0,0,0,0,0c0.1,0.2,0.1,0.5,0.2,0.7c0,0,0,0,0,0
				c0.6,1.9,1.5,3.8,2.6,5.5c0,0,0,0,0,0c0.1,0.2,0.3,0.4,0.4,0.6c0,0,0,0,0,0.1c0.1,0.2,0.3,0.4,0.4,0.6c0,0,0.1,0.1,0.1,0.1
				c0.1,0.2,0.2,0.3,0.4,0.5c0.1,0.1,0.1,0.2,0.2,0.3c0.1,0.1,0.2,0.2,0.3,0.3c0.1,0.1,0.2,0.3,0.4,0.4c0,0,0.1,0.1,0.1,0.1
				c1.5,1.7,3.2,3.3,5,4.7c0,0,0,0,0,0C3.5,50.4-1.3,44.1-1.4,36.9c0,0.1,0,0.2,0,0.4C-1.4,37.4-1.4,37.5-1.4,37.6"/>
			<path id="Fill-83" class="st1" d="M77.8,45.2c0-0.1,0-0.2,0-0.3c0,0.4-0.1,0.7-0.2,1.1c0,0,0,0,0,0
				C77.8,45.7,77.8,45.5,77.8,45.2"/>
			<path id="Fill-84" class="st1" d="M72.1,55.7c-0.6,0.5-1.2,1.1-1.8,1.6c0,0,0,0,0,0c0,0,0.1,0,0.1-0.1c0,0,0.1-0.1,0.1-0.1
				c0.2-0.1,0.4-0.3,0.5-0.4c0,0,0,0,0,0C71.4,56.4,71.8,56,72.1,55.7C72.1,55.7,72.1,55.7,72.1,55.7"/>
			<path id="Fill-85" class="st1" d="M77.1,48.2c0.2-0.7,0.4-1.4,0.6-2.2c0,0,0,0,0,0C77.6,46.7,77.4,47.4,77.1,48.2
				C77.1,48.2,77.1,48.2,77.1,48.2"/>
			<path id="Fill-86" class="st1" d="M31.7,64.2C31.7,64.2,31.7,64.2,31.7,64.2c-1-0.2-2.1-0.4-3.1-0.7c0,0,0,0,0,0
				C29.6,63.8,30.7,64,31.7,64.2"/>
			<path id="Fill-87" class="st1" d="M60.8,62.4c0.3-0.1,0.5-0.2,0.8-0.3c-0.3,0.1-0.7,0.3-1,0.4C60.6,62.4,60.7,62.4,60.8,62.4"/>
			<path id="Fill-88" class="st1" d="M34,64.6c0.1,0,0.1,0,0.2,0c-0.1,0-0.3,0-0.4-0.1C33.8,64.6,33.9,64.6,34,64.6"/>
			<path id="Fill-89" class="st1" d="M12,56.7c-0.2-0.1-0.4-0.3-0.6-0.4c0,0,0,0,0,0C11.6,56.5,11.8,56.6,12,56.7"/>
			<path id="Fill-90" class="st1" d="M72.1,55.7C72.1,55.7,72.1,55.7,72.1,55.7c2.3-2.1,4.1-4.6,5.1-7.5c0,0,0,0,0,0
				C76.2,51.1,74.3,53.6,72.1,55.7"/>
			<path id="Fill-91" class="st1" d="M41.1,65.2C41,65.2,41,65.2,41.1,65.2c-0.5,0-1,0-1.5-0.1c2.1,0.1,4.2,0.1,6.3,0c0,0,0,0-0.1,0
				C44.2,65.3,42.6,65.3,41.1,65.2"/>
			<path id="Fill-92" class="st1" d="M46.2,65.2c-0.1,0-0.1,0-0.2,0c0.9,0,1.9-0.1,2.8-0.2c0,0,0,0-0.1,0
				C47.9,65.1,47,65.2,46.2,65.2"/>
			<path id="Fill-93" class="st1" d="M49.4,65c0.3,0,0.6-0.1,0.9-0.1C50,64.9,49.7,64.9,49.4,65C49.4,65,49.4,65,49.4,65"/>
			<path id="Fill-94" class="st1" d="M48.7,65C48.8,65,48.8,65,48.7,65c0.2,0,0.4,0,0.6-0.1c0,0,0,0,0,0C49.2,65,49,65,48.7,65"/>
			<path id="Fill-95" class="st1" d="M45.8,65.2C45.8,65.2,45.9,65.2,45.8,65.2c0.1,0,0.1,0,0.2,0c0.1,0,0.1,0,0.2,0
				C46.1,65.2,45.9,65.2,45.8,65.2"/>
			<path id="Fill-96" class="st1" d="M41.1,65.2C41,65.2,41,65.2,41.1,65.2C41,65.2,41,65.2,41.1,65.2"/>
			<path id="Fill-97" class="st1" d="M69.9,57.6c0.1-0.1,0.3-0.2,0.4-0.3c0,0,0,0,0,0C70.1,57.4,70,57.5,69.9,57.6"/>
			<path id="Fill-98" class="st1" d="M77.7,46c0-0.3,0.1-0.5,0.1-0.8C77.8,45.5,77.8,45.7,77.7,46C77.7,46,77.7,46,77.7,46"/>
			<path id="Fill-99" class="st1" d="M4.2,50.1c1.5,1.7,3.2,3.3,5,4.7c0,0,0,0,0,0C7.4,53.4,5.7,51.8,4.2,50.1"/>
			<path id="Fill-100" class="st1" d="M71,56.7c0.4-0.3,0.7-0.6,1-0.9c0,0,0,0,0,0C71.8,56,71.4,56.4,71,56.7"/>
			<path id="Fill-101" class="st1" d="M70.3,57.3C70.3,57.3,70.3,57.2,70.3,57.3C70.3,57.2,70.3,57.3,70.3,57.3
				C70.3,57.3,70.3,57.3,70.3,57.3"/>
			<path id="Fill-102" class="st1" d="M77.1,48.2C77.1,48.2,77.1,48.2,77.1,48.2c0.2-0.7,0.4-1.4,0.6-2.2c0,0,0,0,0,0
				C77.6,46.8,77.4,47.5,77.1,48.2"/>
			<path id="Fill-103" class="st1" d="M27.8,1.6c-0.4,0.3-0.9,0.6-1.2,1c0.9-0.5,1.8-0.9,2.7-1.2C28.8,1.4,28.3,1.5,27.8,1.6"/>
			<path id="Fill-104" class="st1" d="M15.9,65.3c-1.3-1.9-2.4-4-3.3-6.1c-0.8-0.5-1.6-1-2.3-1.5c2.2,5.5,5.5,10.6,9.8,14.6
				c2.5,2.3,5.3,4.2,8.4,5.5c1.5,0.4,3,0.7,4.5,0.9C25.9,76.6,20,71.4,15.9,65.3"/>
			<path id="Fill-105" class="st1" d="M11,56.1c-0.3-0.2-0.6-0.4-0.9-0.6c0.2,0.2,0.5,0.3,0.7,0.5C10.9,56,11,56,11,56.1"/>
			<path id="Fill-106" class="st1" d="M14.7,13.9c1.1-1.8,2.4-3.6,3.9-5.1c-0.4-0.1-0.9-0.2-1.3-0.3c-3.6,3.9-6.3,8.7-8.1,13.7
				c-0.5,1.3-0.8,2.6-1.2,4c0.5,0,1.1,0,1.6,0C10.7,21.9,12.3,17.7,14.7,13.9"/>
			<path id="Fill-107" class="st1" d="M33.3,79.4c2.6,0.5,5.1,0.5,7.7,0.3c-0.9,0.1-1.8,0.1-2.7,0c-1.4,0-2.8-0.1-4.2-0.2
				C33.9,79.4,33.6,79.4,33.3,79.4"/>
			<path id="Fill-108" class="st1" d="M20.1,7.2C21,6.4,21.9,5.6,22.8,5c0-0.1,0.1-0.1,0.1-0.2c0.4-0.6,0.9-1.3,1.5-1.8
				c-2,1.1-3.9,2.4-5.5,4c0.3,0,0.7,0.1,1,0.1C19.9,7.1,20,7.2,20.1,7.2"/>
			<path id="Fill-109" class="st1" d="M7.7,49.3c0.4,1.8,0.9,3.6,1.5,5.4c0.6,0.4,1.1,0.8,1.7,1.2c0.2,0.1,0.4,0.2,0.5,0.4
				c-2-5.4-3.1-11.1-3.2-16.8c-0.1-3.7,0.2-7.3,0.9-10.9c-0.5,0-1.1,0-1.6,0C6.2,35.4,6.3,42.5,7.7,49.3"/>
			<path id="Fill-110" class="st1" d="M32.4,0.5c1-0.2,2.1-0.4,3.1-0.5C34,0.1,32.4,0.3,31,0.6c0.3,0,0.7-0.1,1-0.1
				C32.1,0.5,32.2,0.5,32.4,0.5"/>
			<path id="Fill-111" class="st1" d="M27.8,1.6c0.5-0.1,1-0.2,1.5-0.2c1-0.4,2-0.7,3-0.9c-0.1,0-0.3,0-0.4,0c-0.3,0-0.7,0.1-1,0.1
				c-0.8,0.2-1.6,0.4-2.4,0.6C28.3,1.3,28,1.5,27.8,1.6"/>
			<path id="Fill-112" class="st1" d="M22.8,5c1.2-0.9,2.5-1.7,3.8-2.4c0.4-0.4,0.8-0.7,1.2-1c-0.3,0.1-0.6,0.1-0.9,0.2
				c-0.6,0.2-1.3,0.5-1.9,0.8c-0.2,0.1-0.4,0.2-0.6,0.3c-0.6,0.5-1,1.1-1.5,1.8C22.9,4.8,22.8,4.9,22.8,5"/>
			<path id="Fill-113" class="st1" d="M26.9,1.8c0.3-0.1,0.6-0.1,0.9-0.2c0.2-0.1,0.5-0.3,0.7-0.4C28,1.4,27.4,1.6,26.9,1.8"/>
			<path id="Fill-114" class="st1" d="M11,56.1C11,56,10.9,56,10.8,56c-0.2-0.2-0.5-0.3-0.7-0.5c0,0-0.1-0.1-0.1-0.1
				c-0.3-0.2-0.5-0.4-0.8-0.6c0.3,1,0.7,1.9,1.1,2.9c0.8,0.5,1.5,1,2.3,1.5c-0.4-0.9-0.8-1.9-1.2-2.8C11.3,56.3,11.2,56.2,11,56.1"
				/>
			<path id="Fill-115" class="st1" d="M10.1,55.5c0.3,0.2,0.6,0.4,0.9,0.6c0.1,0.1,0.3,0.2,0.4,0.3c0,0,0,0,0,0
				c-0.2-0.1-0.4-0.2-0.5-0.4c-0.6-0.4-1.1-0.8-1.7-1.2c0,0,0,0,0,0C9.5,55,9.8,55.2,10.1,55.5"/>
			<path id="Fill-116" class="st1" d="M11.4,56.4c-0.1-0.1-0.3-0.2-0.4-0.3C11.2,56.2,11.3,56.3,11.4,56.4
				C11.4,56.4,11.4,56.4,11.4,56.4"/>
			<path id="Fill-117" class="st1" d="M10.1,55.5c-0.3-0.2-0.6-0.5-0.9-0.7c0,0,0,0,0,0c0.3,0.2,0.5,0.4,0.8,0.6
				C10.1,55.4,10.1,55.4,10.1,55.5"/>
			<path id="Fill-118" class="st1" d="M20.8,9.5c0.2-0.7,0.4-1.3,0.7-1.9c-0.5-0.1-0.9-0.2-1.4-0.3c-0.5,0.5-1.1,1-1.5,1.6
				c0.6,0.2,1.3,0.4,1.9,0.6C20.6,9.3,20.7,9.4,20.8,9.5"/>
			<path id="Fill-119" class="st1" d="M64.3,69.9c0.6-0.5,1.3-1.1,1.8-1.6c0,0,0,0,0,0c0.3-0.5,0.5-1,0.7-1.6
				c-0.6,0.9-1.3,1.7-2.1,2.5C64.6,69.4,64.5,69.6,64.3,69.9"/>
			<path id="Fill-120" class="st1" d="M66.9,61.3c-0.5,0.3-1,0.6-1.5,0.8c-0.1,0.1-0.3,0.1-0.4,0.2c0.3,1.6,0.5,3.3,0.2,4.9
				c0.7-0.9,1.3-1.8,1.9-2.8C67.2,63.4,67.1,62.4,66.9,61.3"/>
			<path id="Fill-121" class="st1" d="M64.7,60.8C64.7,60.8,64.7,60.8,64.7,60.8c0.7-0.3,1.3-0.7,2-1c0,0,0,0,0,0
				C66,60.1,65.3,60.4,64.7,60.8"/>
			<path id="Fill-122" class="st1" d="M66.2,68.3c-0.2,0.2-0.4,0.4-0.6,0.6C65.7,68.7,65.9,68.5,66.2,68.3
				C66.2,68.3,66.2,68.3,66.2,68.3"/>
			<path id="Fill-123" class="st1" d="M18.8,7c-1.6-0.2-3.4,0-4.6,1c-0.6,0.5-1.2,1-1.8,1.5c1.3-1.1,3.1-1.3,4.9-1
				C17.8,8,18.3,7.5,18.8,7"/>
			<path id="Fill-124" class="st1" d="M28.2,13.4c5.2,3.4,9.9,7.7,14.2,12.2c2.5,2.6,4.8,5.2,7,8c1.3,0.4,2.6,0.7,3.8,1.1
				c-0.9-1.1-1.7-2.2-2.6-3.3C45,24.3,38.4,17.6,30.9,12.4c-2.3-1.6-4.8-3.1-7.4-4.2C23.3,9,23.1,9.7,23,10.4
				C24.8,11.2,26.6,12.3,28.2,13.4"/>
			<path id="Fill-125" class="st1" d="M59.1,47.6c2.1,3.8,4.1,7.8,5.3,12c0.1,0.4,0.2,0.8,0.3,1.2c0.7-0.3,1.3-0.7,2-1
				c-0.5-2.2-1.3-4.4-2.2-6.4c-2.3-5.4-5.3-10.5-8.7-15.3c-1.2-0.4-2.5-0.8-3.8-1.2C54.6,40.2,57,43.9,59.1,47.6"/>
			<path id="Fill-126" class="st1" d="M71.9,44.3c0.5,0.3,1.1,0.6,1.6,0.9c0-0.1,0-0.3,0-0.4c0-0.8,0-1.6-0.1-2.4
				c-0.6-0.3-1.1-0.6-1.7-0.9C71.8,42.5,71.9,43.4,71.9,44.3"/>
			<path id="Fill-127" class="st1" d="M22.1,27.5c-0.9-0.1-1.7-0.3-2.6-0.4c0,0.8,0.1,1.6,0.2,2.4c0.9,0.1,1.7,0.2,2.6,0.4
				C22.2,29.2,22.1,28.3,22.1,27.5"/>
			<path id="Fill-128" class="st1" d="M71,56.7C71,56.7,71,56.7,71,56.7c-0.2,0.2-0.4,0.3-0.6,0.5c0,0-0.1,0.1-0.1,0.1
				c0,0-0.1,0-0.1,0.1c-0.2,0.8-0.5,1.6-0.8,2.4c0.7-0.5,1.3-1,1.9-1.6c0.3-0.8,0.5-1.6,0.7-2.4C71.8,56.1,71.4,56.4,71,56.7"/>
			<path id="Fill-129" class="st1" d="M28.6,63.6c0.4,0.8,0.7,1.5,1.1,2.2c1,0.2,2.1,0.4,3.1,0.6c-0.4-0.7-0.8-1.4-1.1-2.2
				C30.7,64.1,29.7,63.8,28.6,63.6"/>
			<path id="Fill-130" class="st1" d="M9.1,28.6c0.2-0.8,0.3-1.6,0.5-2.4c-0.5,0-1.1,0-1.6,0c-0.2,0.8-0.4,1.6-0.5,2.4
				C8,28.6,8.6,28.6,9.1,28.6"/>
			<path id="Fill-131" class="st1" d="M67.1,64.5c-0.6,1-1.2,1.9-1.9,2.8c-0.1,0.6-0.3,1.3-0.5,1.8c0.8-0.8,1.5-1.6,2.1-2.5
				c0.2-0.6,0.2-1.2,0.3-1.8C67.1,64.7,67.1,64.6,67.1,64.5"/>
			<path id="Fill-132" class="st1" d="M52,36.8c1.3,0.4,2.5,0.8,3.8,1.2c-0.8-1.1-1.6-2.2-2.4-3.3c-1.3-0.4-2.6-0.8-3.8-1.1
				C50.4,34.6,51.2,35.7,52,36.8"/>
			<path id="Fill-133" class="st1" d="M23.5,8.3c-0.7-0.3-1.4-0.5-2.1-0.7c-0.3,0.6-0.5,1.3-0.7,1.9c0.7,0.3,1.4,0.6,2.1,0.9
				C23.1,9.7,23.3,9,23.5,8.3"/>
			<path id="Fill-134" class="st1" d="M65,62.4c0.1-0.1,0.3-0.1,0.4-0.2c0.5-0.3,1-0.6,1.5-0.8c-0.1-0.5-0.2-1.1-0.3-1.6
				c-0.6,0.4-1.3,0.7-2,1C64.8,61.3,64.9,61.8,65,62.4"/>
			<path id="Fill-135" class="st1" d="M64.7,60.8c0.7-0.3,1.3-0.7,2-1c0,0,0,0,0,0C66,60.1,65.3,60.4,64.7,60.8
				C64.7,60.7,64.7,60.7,64.7,60.8"/>
			<path id="Fill-136" class="st1" d="M20.1,7.2c-0.1,0-0.2-0.1-0.3-0.1C19.5,7,19.1,7,18.8,7c-0.5,0.5-1,1-1.5,1.5
				c0.4,0.1,0.9,0.2,1.3,0.3C19.1,8.2,19.6,7.7,20.1,7.2"/>
			<path id="Fill-137" class="st1" d="M28.7,77.9c-0.4-0.1-0.8-0.2-1.2-0.3c-0.1,0-0.2-0.1-0.3-0.1c-0.4-0.1-0.8-0.3-1.2-0.4
				c-0.2-0.1-0.4-0.1-0.6-0.2c-0.3-0.1-0.6-0.2-0.9-0.3c-0.3-0.1-0.7-0.3-1-0.4c-0.2-0.1-0.3-0.1-0.5-0.2c-0.4-0.2-0.9-0.4-1.3-0.6
				c-0.1,0-0.1,0-0.2-0.1c-0.6-0.3-1.2-0.6-1.8-0.9c0,0,0,0-0.1,0c-1.1-0.6-2.1-1.2-3.1-1.8c-0.7-0.5-1.5-1-2.2-1.5
				c-0.1,0-0.1-0.1-0.2-0.1c-0.3-0.2-0.6-0.5-0.9-0.8c-0.2-0.1-0.3-0.3-0.5-0.4c-0.2-0.2-0.4-0.3-0.5-0.5c-0.3-0.3-0.6-0.5-0.9-0.8
				c0,0-0.1-0.1-0.1-0.1c-0.7-0.7-1.4-1.4-2.1-2.1c-1-1.1-1.9-2.2-2.7-3.3c0,0-0.1-0.1-0.1-0.1c-0.5-0.6-0.9-1.3-1.4-1.9
				c0-0.1-0.1-0.2-0.1-0.2c-0.2-0.4-0.5-0.7-0.7-1.1c-0.2-0.3-0.3-0.6-0.5-0.8c-0.1-0.2-0.2-0.3-0.3-0.5c-0.2-0.4-0.5-0.9-0.7-1.4
				c0,0,0,0,0,0C2.3,56.2,2,55.6,1.7,55c0,0,0,0,0,0c-0.4-1-0.9-2.1-1.2-3.1C0.2,51,0,50.2-0.2,49.4c0-0.1-0.1-0.3-0.1-0.4
				c-0.1-0.3-0.1-0.6-0.2-0.9c-0.1-0.3-0.1-0.6-0.2-0.9c0-0.1-0.1-0.3-0.1-0.5c-0.1-0.5-0.2-1-0.3-1.5c-0.1-0.9-0.3-1.7-0.3-2.6
				c0-0.5-0.1-0.9-0.1-1.4c-0.1-0.4-0.1-0.7-0.1-1.1c-0.2-1.8,0.1-3.6,0.3-5.4c-0.1,0.5-0.1,0.9-0.1,1.4c0-0.2,0.1-0.5,0.1-0.7
				c0,0,0,0,0,0c0.1-0.7,0.2-1.4,0.3-2.2c0.1-0.7,0.3-1.4,0.4-2.1c0-0.2,0.1-0.4,0.1-0.6c0,0,0,0,0,0c0-0.1,0-0.1,0-0.2
				c0-0.1,0-0.2,0.1-0.3c0-0.1,0-0.2,0.1-0.3c0.1-0.2,0.1-0.5,0.2-0.7c-1.4,5-1.9,10.2-1.3,15.4c1,8.8,5.1,17,11.3,23.3
				c6.3,6.3,14.7,10.5,23.5,11.6c-0.8-0.1-1.5-0.3-2.3-0.6C30.2,78.5,29.4,78.2,28.7,77.9"/>
			<path id="Fill-138" class="st1" d="M-0.5,30.5C-0.5,30.5-0.5,30.5-0.5,30.5c0-0.1,0-0.1,0-0.2C-0.4,30.3-0.5,30.4-0.5,30.5"/>
			<path id="Fill-139" class="st1" d="M75.5,54.3c0,0.1-0.1,0.2-0.1,0.3c-0.1,0.2-0.1,0.3-0.2,0.5C75.3,54.8,75.4,54.5,75.5,54.3"/>
			<path id="Fill-140" class="st1" d="M0.4,27.5c0.1-0.2,0.2-0.5,0.3-0.7c0,0,0,0,0-0.1c-0.1,0.4-0.3,0.7-0.4,1.1c0,0,0,0,0,0
				C0.3,27.6,0.3,27.6,0.4,27.5"/>
			<path id="Fill-142" class="st1" d="M66.5,68c-0.1,0.1-0.2,0.2-0.3,0.3c0,0,0,0,0,0c-0.3,0.4-0.6,0.8-1,1.2
				c-0.6,0.5-1.2,1-1.8,1.5c0.3-0.3,0.6-0.6,0.9-1c-0.1,0.1-0.2,0.2-0.3,0.2c-0.2,0.2-0.5,0.4-0.7,0.6c-0.2,0.2-0.5,0.4-0.7,0.5
				c-0.1,0.1-0.3,0.2-0.4,0.3c-0.3,0.2-0.7,0.5-1,0.7c0,0-0.1,0-0.1,0.1c-0.8,0.5-1.6,1-2.4,1.5c-1.2,0.7-2.5,1.3-3.8,1.9
				c-0.1,0.1-0.3,0.1-0.4,0.2c-0.3,0.1-0.5,0.2-0.8,0.3c-0.4,0.2-0.9,0.3-1.3,0.5c-0.1,0-0.2,0.1-0.4,0.1c-0.4,0.1-0.7,0.3-1.1,0.4
				c-0.3,0.1-0.7,0.2-1,0.3c-0.2,0-0.3,0.1-0.5,0.1c-1.5,0.4-3.1,0.8-4.7,1c0.8,0.2,1.6,0.2,2.4,0c4.4-1,8.6-2.6,12.5-5
				c6.7-4.2,12-10.3,15.1-17.5c0,0.1-0.1,0.2-0.1,0.3c-0.2,0.4-0.4,0.8-0.6,1.3c-0.1,0.2-0.2,0.3-0.3,0.5c-0.3,0.5-0.6,1.1-0.9,1.6
				c-0.1,0.1-0.1,0.2-0.2,0.3c-0.3,0.5-0.6,0.9-0.9,1.4c-0.2,0.2-0.3,0.5-0.5,0.7c-0.2,0.3-0.4,0.6-0.6,0.8
				c-0.2,0.3-0.4,0.5-0.6,0.8c-0.2,0.2-0.4,0.5-0.5,0.7c-0.2,0.3-0.4,0.6-0.7,0.8c-0.1,0.1-0.2,0.3-0.4,0.4
				c-0.2,0.3-0.5,0.5-0.8,0.8c-0.1,0.1-0.1,0.1-0.2,0.2c-0.2,0.2-0.4,0.5-0.6,0.7C66.8,67.6,66.7,67.8,66.5,68"/>
			<path id="Fill-143" class="st1" d="M39.8,79.2c-0.1,0-0.1,0-0.2,0c-0.4,0-0.7,0-1.1,0c-0.2,0-0.5,0-0.7,0c-0.2,0-0.4,0-0.7,0
				c-0.4,0-0.8,0-1.2-0.1c-0.1,0-0.2,0-0.2,0c-0.8-0.1-1.7-0.1-2.5-0.3c1.1,0.3,2.2,0.6,3.4,0.7c0.6,0.1,1.2,0.1,1.8,0.2
				c1.6,0,3.1-0.1,4.7-0.3c-0.5,0-1.1-0.2-1.6-0.3C40.9,79.1,40.3,79.2,39.8,79.2"/>
			<path id="Fill-144" class="st1" d="M74.7,56.2c0.1-0.2,0.2-0.4,0.3-0.6c-0.1,0.1-0.1,0.3-0.2,0.4C74.8,56,74.8,56.1,74.7,56.2"/>
			<path id="Fill-145" class="st1" d="M-0.2,29.3c0.1-0.4,0.2-0.8,0.3-1.2c0-0.1,0.1-0.3,0.1-0.4c0,0,0,0,0,0
				C0.1,28.2,0,28.6-0.1,29c-0.1,0.2-0.1,0.5-0.2,0.7C-0.3,29.6-0.2,29.4-0.2,29.3"/>
			<path id="Fill-146" class="st1" d="M-0.4,30c0,0.1,0,0.2-0.1,0.3c0,0,0-0.1,0-0.1C-0.4,30.1-0.4,30-0.4,30"/>
			<path id="Fill-147" class="st1" d="M44.7,78.7c-0.7,0.1-1.3,0.2-2,0.3c-0.4,0-0.8,0.1-1.2,0.1c0.5,0.2,1,0.3,1.6,0.3
				c1.3-0.2,2.6-0.4,3.9-0.6c0,0,0,0,0.1,0C46.2,78.9,45.4,78.9,44.7,78.7"/>
			<path id="Fill-148" class="st1" d="M47.1,78.8C47.1,78.8,47.1,78.8,47.1,78.8C47,78.8,47,78.8,47.1,78.8
				C47,78.8,47,78.8,47.1,78.8"/>
			<path id="Fill-151" class="st1" d="M33.1,78.8c0,0-0.1,0-0.1,0c-1.3-0.2-2.7-0.5-4-0.8c0,0,0,0,0,0c-0.1,0-0.2-0.1-0.3-0.1
				c0.8,0.3,1.6,0.6,2.4,0.9c0.8,0.2,1.5,0.4,2.3,0.6c0.3,0,0.6,0.1,0.8,0.1c1.4,0.2,2.8,0.2,4.2,0.2c-0.6,0-1.2-0.1-1.8-0.2
				C35.4,79.4,34.3,79.1,33.1,78.8"/>
			<path id="Fill-152" class="st1" d="M63.4,70.9c0.6-0.5,1.2-1,1.8-1.5c0.4-0.3,0.7-0.7,1-1.2c-0.2,0.2-0.4,0.4-0.6,0.6
				c-0.1,0.1-0.2,0.1-0.2,0.2c-0.3,0.3-0.6,0.5-0.9,0.8c0,0-0.1,0.1-0.1,0.1C64,70.3,63.7,70.6,63.4,70.9"/>
			<path id="Fill-153" class="st1" d="M66.5,68c0.2-0.2,0.3-0.3,0.5-0.5c0.2-0.2,0.4-0.5,0.6-0.7c-0.5,0.5-0.9,1-1.4,1.5
				c0,0,0,0,0,0C66.3,68.2,66.4,68.1,66.5,68"/>
			<path id="Fill-154" class="st1" d="M68.9,65.4c0.2-0.3,0.5-0.5,0.7-0.8c0.2-0.2,0.4-0.5,0.5-0.7c0.2-0.3,0.4-0.5,0.6-0.8
				c0.2-0.3,0.4-0.6,0.6-0.8c0.2-0.2,0.3-0.5,0.5-0.7c0.3-0.5,0.6-0.9,0.9-1.4c0.1-0.1,0.1-0.2,0.2-0.3c0.3-0.5,0.6-1,0.9-1.6
				c0.1-0.2,0.2-0.3,0.3-0.5c0.2-0.4,0.4-0.8,0.6-1.3c0.1-0.2,0.2-0.4,0.3-0.6c0.2-0.5,0.4-0.9,0.6-1.4c0.1-0.2,0.2-0.4,0.3-0.6
				c-1.8,4.7-4.4,9-7.8,12.6c0.2-0.3,0.5-0.5,0.8-0.8C68.7,65.6,68.8,65.5,68.9,65.4"/>
			<path id="Fill-155" class="st1" d="M67.6,66.8c0.1-0.1,0.1-0.1,0.2-0.2C67.7,66.6,67.7,66.7,67.6,66.8"/>
			<path id="Fill-156" class="st1" d="M0.3,27.7C0.3,27.7,0.3,27.7,0.3,27.7c0.1-0.4,0.2-0.7,0.3-1c-0.1,0.3-0.2,0.5-0.3,0.7
				C0.3,27.6,0.3,27.6,0.3,27.7"/>
			<path id="Fill-157" class="st1" d="M0.6,26.7c0.1-0.3,0.2-0.7,0.4-1C0.9,26,0.8,26.3,0.6,26.7"/>
			<path id="Fill-158" class="st1" d="M1,25.6c-0.1,0.3-0.2,0.7-0.4,1c0,0,0,0,0,0.1C0.7,26.4,0.9,26,1,25.6"/>
			<path id="Fill-160" class="st1" d="M41.4,79.1c-2.8,0.2-5.7,0.1-8.5-0.3c0,0,0.1,0,0.1,0c0.9,0.1,1.7,0.2,2.6,0.3
				c0.1,0,0.2,0,0.2,0c0.4,0,0.8,0,1.2,0.1c0.2,0,0.4,0,0.7,0c0.2,0,0.5,0,0.7,0c0.4,0,0.7,0,1.1,0c0.1,0,0.1,0,0.2,0
				C40.3,79.2,40.9,79.1,41.4,79.1C41.5,79.1,41.4,79.1,41.4,79.1"/>
			<path id="Fill-161" class="st1" d="M-1.4,36.9c0.1-2.2,0.5-4.5,1-6.7c0,0.1,0,0.1-0.1,0.2c-0.1,0.2-0.1,0.4-0.1,0.7
				c-0.2,0.7-0.3,1.4-0.4,2.1c-0.1,0.7-0.2,1.4-0.3,2.2c0,0,0,0,0,0c0,0.4-0.1,0.7-0.1,1.1C-1.4,36.6-1.4,36.8-1.4,36.9"/>
			<path id="Fill-162" class="st1" d="M28.5,77.8c-4.2-1.1-8.3-2.9-12-5.3C9.1,67.6,3.4,60.3,0.6,51.9c-1.1-3.3-1.8-6.8-2-10.2
				c0-0.1,0-0.2,0-0.3c0.1,1.3,0.2,2.6,0.4,3.9c0.1,0.5,0.2,1,0.3,1.5c0,0.2,0.1,0.3,0.1,0.5c0.1,0.3,0.1,0.6,0.2,0.9
				c0.1,0.3,0.1,0.6,0.2,0.9c0,0.1,0.1,0.3,0.1,0.4c0.5,1.9,1.2,3.8,2,5.6c0,0,0,0,0,0c0.3,0.6,0.5,1.2,0.8,1.8c0,0,0,0,0,0
				c0.2,0.5,0.5,0.9,0.7,1.4c0.1,0.2,0.2,0.3,0.3,0.5c0.2,0.3,0.3,0.6,0.5,0.8c0.2,0.4,0.4,0.7,0.7,1.1c0,0.1,0.1,0.2,0.1,0.2
				c0.4,0.7,0.9,1.3,1.4,1.9c0,0,0.1,0.1,0.1,0.1c1.4,1.9,3.1,3.8,4.8,5.4c0,0,0.1,0.1,0.1,0.1c0.3,0.3,0.6,0.5,0.9,0.8
				c0.2,0.2,0.3,0.3,0.5,0.5c0.2,0.1,0.3,0.3,0.5,0.4c0.3,0.3,0.6,0.5,0.9,0.8c0.1,0,0.1,0.1,0.2,0.1c1.7,1.3,3.4,2.4,5.3,3.4
				c0,0,0,0,0.1,0c0.6,0.3,1.2,0.6,1.8,0.9c0.1,0,0.1,0,0.2,0.1c0.4,0.2,0.9,0.4,1.3,0.6c0.2,0.1,0.3,0.1,0.5,0.2
				c0.3,0.1,0.7,0.3,1,0.4c0.3,0.1,0.6,0.2,0.9,0.3c0.2,0.1,0.4,0.1,0.6,0.2c0.4,0.1,0.8,0.3,1.2,0.4c0.1,0,0.2,0.1,0.3,0.1
				c0.4,0.1,0.8,0.2,1.2,0.3C28.6,77.9,28.5,77.8,28.5,77.8"/>
			<path id="Fill-163" class="st1" d="M1.7,55C1.7,55,1.7,55,1.7,55C1.7,55,1.7,55,1.7,55"/>
			<path id="Fill-164" class="st1" d="M19.6,74.4C19.6,74.4,19.6,74.4,19.6,74.4C19.6,74.4,19.6,74.4,19.6,74.4"/>
			<path id="Fill-165" class="st1" d="M55.2,75.6C55.2,75.6,55.3,75.6,55.2,75.6c-3.3,1.5-6.9,2.6-10.6,3.1c0,0,0,0,0,0
				c1.6-0.2,3.2-0.6,4.7-1c0.2,0,0.3-0.1,0.5-0.1c0.3-0.1,0.7-0.2,1-0.3c0.4-0.1,0.7-0.2,1.1-0.4c0.1,0,0.2-0.1,0.4-0.1
				c0.4-0.2,0.9-0.3,1.3-0.5c0.3-0.1,0.5-0.2,0.8-0.3c0.1-0.1,0.3-0.1,0.4-0.2c2.1-0.9,4.2-2.1,6.2-3.4c0,0,0.1,0,0.1-0.1
				c0.4-0.2,0.7-0.5,1-0.7c0.1-0.1,0.3-0.2,0.4-0.3c0.2-0.2,0.5-0.4,0.7-0.5c0.2-0.2,0.5-0.4,0.7-0.6c0.1-0.1,0.2-0.2,0.3-0.2
				c0,0,0.1-0.1,0.1-0.1c-2.7,2.3-5.7,4.2-9,5.7C55.3,75.6,55.3,75.6,55.2,75.6"/>
			<path id="Fill-166" class="st1" d="M55.4,75.5C55.3,75.5,55.3,75.6,55.4,75.5c-0.1,0-0.1,0.1-0.1,0.1
				C55.3,75.6,55.3,75.6,55.4,75.5"/>
			<path id="Fill-167" class="st1" d="M0.2,28.1c-0.1,0.4-0.2,0.8-0.3,1.2c-0.1,0.3-0.2,0.6-0.2,0.8c0,0.1,0,0.2-0.1,0.3
				c0-0.1,0-0.1,0.1-0.2c0.2-0.9,0.4-1.8,0.7-2.6c0,0,0,0,0,0C0.2,27.8,0.2,28,0.2,28.1"/>
			<path id="Fill-168" class="st1" d="M41.4,79.1C41.4,79.1,41.5,79.1,41.4,79.1c1.1-0.1,2.2-0.2,3.2-0.3c0,0,0,0,0,0
				c-0.6,0.1-1.3,0.2-1.9,0.2C42.3,79,41.8,79,41.4,79.1"/>
			<path id="Fill-172" class="st1" d="M32.9,78.7c-1.5-0.2-3-0.5-4.5-0.9c0.1,0,0.1,0,0.2,0.1c0.1,0,0.2,0.1,0.4,0.1c0,0,0,0,0,0
				c1.3,0.3,2.7,0.6,4,0.8C33,78.8,33,78.7,32.9,78.7"/>
			<path id="Fill-173" class="st1" d="M64.3,69.9C64.3,69.9,64.3,69.9,64.3,69.9C64.3,69.9,64.3,69.9,64.3,69.9
				c0.4-0.3,0.7-0.5,1-0.8c0.1-0.1,0.2-0.1,0.2-0.2c0.2-0.2,0.4-0.4,0.6-0.6c0,0,0,0,0,0c0,0,0,0,0,0C65.6,68.8,65,69.4,64.3,69.9"
				/>
			<path id="Fill-174" class="st1" d="M-1,33.2c0.1-0.7,0.3-1.4,0.4-2.1C-0.8,31.8-0.9,32.5-1,33.2"/>
			<path id="Fill-175" class="st1" d="M-1.3,35.4c0.1-0.7,0.2-1.4,0.3-2.2C-1.1,33.9-1.2,34.7-1.3,35.4"/>
			<path id="Fill-176" class="st1" d="M6.3,62.9c0.9,1.2,1.8,2.3,2.7,3.3c0.7,0.7,1.4,1.4,2.1,2.1C9.4,66.7,7.8,64.9,6.3,62.9"/>
			<path id="Fill-177" class="st1" d="M6.2,62.8c-0.5-0.6-0.9-1.3-1.4-1.9C5.3,61.5,5.8,62.2,6.2,62.8"/>
			<path id="Fill-178" class="st1" d="M6.3,62.9c0,0-0.1-0.1-0.1-0.1C6.3,62.8,6.3,62.9,6.3,62.9"/>
			<path id="Fill-179" class="st1" d="M-1.5,41.2c0,0.5,0,0.9,0.1,1.4c0.1,0.9,0.2,1.8,0.3,2.6c-0.2-1.3-0.3-2.6-0.4-3.9
				C-1.5,41.3-1.5,41.3-1.5,41.2"/>
			<path id="Fill-180" class="st1" d="M-0.8,46.7c-0.1-0.5-0.2-1-0.3-1.5C-1,45.8-0.9,46.2-0.8,46.7"/>
			<path id="Fill-183" class="st1" d="M75,55.6c0.1-0.2,0.1-0.3,0.2-0.5c0.1-0.2,0.1-0.3,0.2-0.5C75.2,55,75,55.5,74.8,56
				C74.9,55.8,74.9,55.7,75,55.6"/>
			<path id="Fill-184" class="st1" d="M0.4,27.5c0,0.1-0.1,0.2-0.1,0.3c0,0,0,0,0,0C0.3,27.6,0.3,27.6,0.4,27.5"/>
			<path id="Fill-185" class="st1" d="M27.4,77.6c0.4,0.1,0.8,0.2,1.2,0.3c0,0,0,0,0,0C28.2,77.8,27.8,77.7,27.4,77.6"/>
			<path id="Fill-186" class="st1" d="M64.2,70C64.2,70,64.2,70,64.2,70c-0.1,0.1-0.2,0.2-0.3,0.2C64.1,70.1,64.1,70.1,64.2,70"/>
			<path id="Fill-187" class="st1" d="M33.1,78.8c0.8,0.1,1.7,0.2,2.5,0.3C34.8,79,33.9,78.9,33.1,78.8
				C33.1,78.8,33.1,78.8,33.1,78.8"/>
			<path id="Fill-188" class="st1" d="M54.4,76c-0.3,0.1-0.5,0.2-0.8,0.3C53.9,76.2,54.2,76.1,54.4,76"/>
			<path id="Fill-189" class="st1" d="M58.6,73.9c0.8-0.5,1.6-1,2.4-1.5c-2,1.3-4,2.4-6.2,3.4C56.1,75.2,57.4,74.6,58.6,73.9"/>
			<path id="Fill-190" class="st1" d="M54.8,75.8c-0.1,0.1-0.3,0.1-0.4,0.2C54.5,75.9,54.7,75.9,54.8,75.8"/>
			<path id="Fill-191" class="st1" d="M53.6,76.3c-0.4,0.2-0.9,0.3-1.3,0.5C52.8,76.6,53.2,76.5,53.6,76.3"/>
			<path id="Fill-192" class="st1" d="M-0.2,29.3c0,0.1-0.1,0.3-0.1,0.4c0,0.1,0,0.2-0.1,0.3c0,0.1,0,0.1,0,0.2
				C-0.3,29.9-0.3,29.6-0.2,29.3"/>
			<path id="Fill-193" class="st1" d="M0.3,27.7c0,0.1-0.1,0.3-0.1,0.4C0.2,28,0.2,27.8,0.3,27.7C0.3,27.7,0.3,27.7,0.3,27.7"/>
			<path id="Fill-197" class="st1" d="M28.7,77.9c0.1,0,0.2,0.1,0.3,0.1C28.9,78,28.8,77.9,28.7,77.9C28.6,77.9,28.6,77.9,28.7,77.9
				"/>
			<path id="Fill-198" class="st1" d="M29,78c1.3,0.3,2.6,0.6,4,0.8c0,0,0.1,0,0.1,0c0,0-0.1,0-0.1,0C31.7,78.6,30.4,78.3,29,78"/>
			<path id="Fill-199" class="st1" d="M64.4,69.9c0,0-0.1,0.1-0.1,0.1c0,0,0,0,0,0C64.3,69.9,64.3,69.9,64.4,69.9"/>
			<path id="Fill-200" class="st2" d="M29.4,70.3c-0.1,0-0.2-0.1-0.2-0.1C29.3,70.2,29.3,70.2,29.4,70.3"/>
			<path id="Fill-201" class="st2" d="M28.1,69.4c-0.1-0.1-0.2-0.2-0.4-0.2C27.9,69.3,28,69.3,28.1,69.4"/>
			<path id="Fill-202" class="st2" d="M11.2,44.4C11.2,44.4,11.2,44.4,11.2,44.4C11.2,44.4,11.2,44.4,11.2,44.4"/>
			<path id="Fill-203" class="st2" d="M44.5,52c-0.3,0.1-0.5,0.2-0.8,0.3C44,52.2,44.3,52.1,44.5,52"/>
			<path id="Fill-204" class="st2" d="M17.2,27.1c-0.1,0.1-0.1,0.2-0.2,0.4c0,0,0,0,0,0C17.1,27.3,17.1,27.2,17.2,27.1"/>
			<path id="Fill-205" class="st2" d="M63.4,42.3c-0.6,0.4-1.2,0.8-1.8,1.2c-0.3,0.2-0.6,0.4-0.9,0.5c-0.1,0-0.1,0.1-0.2,0.1
				c-0.1,0-0.1,0.1-0.2,0.1c-0.8,0.5-1.6,0.9-2.4,1.4c-0.2,0.1-0.5,0.3-0.7,0.4c-0.3,0.1-0.5,0.3-0.8,0.4C56,46.7,55.5,47,55,47.3
				C57.9,45.8,60.7,44.2,63.4,42.3"/>
			<path id="Fill-206" class="st2" d="M30.8,71.1c-0.1,0-0.1-0.1-0.2-0.1C30.7,71,30.8,71.1,30.8,71.1"/>
			<path id="Fill-207" class="st2" d="M10.7,47.8c0-0.3,0.1-0.6,0.1-0.9C10.8,47.1,10.7,47.5,10.7,47.8"/>
			<path id="Fill-208" class="st2" d="M26.9,68.6c-0.2-0.1-0.4-0.3-0.5-0.4C26.5,68.3,26.7,68.4,26.9,68.6"/>
			<path id="Fill-209" class="st2" d="M10.9,46.1c0-0.2,0.1-0.4,0.1-0.6C11,45.7,11,45.9,10.9,46.1"/>
			<path id="Fill-210" class="st2" d="M11.5,51.2c-0.2-0.3-0.3-0.5-0.5-0.8C11.2,50.6,11.4,50.9,11.5,51.2"/>
			<path id="Fill-211" class="st2" d="M25.7,67.7c-0.2-0.2-0.5-0.4-0.7-0.6C25.2,67.3,25.5,67.5,25.7,67.7"/>
			<path id="Fill-212" class="st2" d="M24.6,66.8c-0.3-0.3-0.6-0.5-0.9-0.8C24,66.3,24.3,66.5,24.6,66.8"/>
			<path id="Fill-213" class="st2" d="M12.5,52.9c-0.2-0.4-0.4-0.7-0.6-1.1C12.1,52.2,12.3,52.5,12.5,52.9"/>
			<path id="Fill-214" class="st2" d="M17,72.8C17,72.8,17,72.8,17,72.8c3.7,1.2,7.9,0.8,11.9-0.3c0,0,0,0,0,0
				C25,73.6,20.8,73.9,17,72.8"/>
			<path id="Fill-215" class="st2" d="M49.3,2.2c-2.7-0.1-5.5,0.4-8.1,1.3C43.8,2.5,46.6,2,49.3,2.2"/>
			<path id="Fill-216" class="st2" d="M24.9,15.5C24.9,15.5,24.9,15.5,24.9,15.5C24.9,15.5,24.9,15.5,24.9,15.5"/>
			<path id="Fill-217" class="st2" d="M54.1,3.2c0.1,0,0.2,0.1,0.3,0.1C54.3,3.3,54.2,3.2,54.1,3.2"/>
			<path id="Fill-218" class="st2" d="M53.3,2.9c0.1,0,0.3,0.1,0.4,0.1C53.6,3,53.4,2.9,53.3,2.9"/>
			<path id="Fill-219" class="st2" d="M70.7,36.5c-0.2,0.2-0.3,0.3-0.5,0.5c-0.5,0.5-1,1-1.6,1.4c1.1-1,2.2-2,3.3-3.1
				c-0.3,0.3-0.6,0.7-0.9,1C70.9,36.3,70.8,36.4,70.7,36.5"/>
			<path id="Fill-220" class="st2" d="M52.5,2.7c0.2,0,0.3,0.1,0.5,0.1C52.8,2.7,52.6,2.7,52.5,2.7"/>
			<path id="Fill-221" class="st2" d="M64.9,10.2c0,0,0.1,0.1,0.1,0.1C65,10.3,64.9,10.3,64.9,10.2"/>
			<path id="Fill-222" class="st2" d="M59.4,73.6c0.1,0,0.1-0.1,0.2-0.1c0,0,0,0,0,0C59.5,73.6,59.5,73.6,59.4,73.6"/>
			<path id="Fill-223" class="st2" d="M36.3,69.6C36.3,69.6,36.3,69.6,36.3,69.6c-0.2,0.1-0.5,0.3-0.8,0.4
				C35.8,69.9,36,69.7,36.3,69.6"/>
			<path id="Fill-224" class="st2" d="M35,70.2c-0.3,0.1-0.6,0.3-1,0.4C34.4,70.5,34.7,70.3,35,70.2"/>
			<path id="Fill-225" class="st2" d="M42.6,75.7c5.2,1,10.5,0.8,15.2-1.3C53.1,76.4,47.8,76.7,42.6,75.7"/>
			<path id="Fill-226" class="st2" d="M51.7,2.5c0.2,0,0.4,0.1,0.5,0.1C52,2.6,51.9,2.5,51.7,2.5"/>
			<path id="Fill-227" class="st2" d="M46.5,62.8C46.5,62.8,46.5,62.8,46.5,62.8c3.1-2.6,6.1-5.5,8.7-8.6c-0.6,0.7-1.3,1.5-2,2.2
				C51.2,58.7,48.9,60.9,46.5,62.8"/>
			<path id="Fill-228" class="st2" d="M68,31.2c0.1-0.4,0.2-0.7,0.3-1.1c0,0,0,0,0,0c-0.1,0.4-0.2,0.8-0.3,1.3
				C67.9,31.3,68,31.2,68,31.2"/>
			<path id="Fill-229" class="st2" d="M10.6,49.4L10.6,49.4c0,0.1,0.1,0.1,0.1,0.2C10.6,49.5,10.6,49.5,10.6,49.4"/>
			<path id="Fill-230" class="st2" d="M22,19.1C22,19.1,22,19.1,22,19.1c-1.8,2.5-3.4,5.1-4.8,7.8C18.7,24.2,20.3,21.6,22,19.1"/>
			<path id="Fill-231" class="st2" d="M10.6,48.3c0,0.3-0.1,0.7-0.1,1c0,0,0,0,0,0C10.6,49,10.6,48.7,10.6,48.3"/>
			<path id="Fill-232" class="st2" d="M43.3,65.3c0.1-0.1,0.1-0.1,0.2-0.2c0,0,0,0,0,0C43.5,65.2,43.4,65.3,43.3,65.3"/>
			<path id="Fill-233" class="st2" d="M64.1,41.1c1.2-2.4,2.3-4.9,3.1-7.5C66.4,36.2,65.3,38.7,64.1,41.1"/>
			<path id="Fill-234" class="st2" d="M10.8,58.7L10.8,58.7C10.8,58.7,10.8,58.7,10.8,58.7C10.8,58.7,10.8,58.7,10.8,58.7"/>
			<path id="Fill-235" class="st2" d="M63.8,41.7c-0.1,0.2-0.2,0.4-0.3,0.5c0,0,0,0,0,0C63.6,42.1,63.7,41.9,63.8,41.7"/>
			<path id="Fill-236" class="st2" d="M67.5,32.7c0-0.1,0.1-0.2,0.1-0.3C67.6,32.5,67.6,32.6,67.5,32.7"/>
			<path id="Fill-237" class="st2" d="M10.6,49.4C10.6,49.4,10.6,49.4,10.6,49.4C10.6,49.4,10.6,49.4,10.6,49.4
				C10.6,49.4,10.6,49.4,10.6,49.4C10.6,49.4,10.6,49.4,10.6,49.4"/>
			<path id="Fill-238" class="st2" d="M16.6,58.7c1.5-0.1,2.9-0.2,4.4-0.4c-0.3,0-0.6,0.1-1,0.1c-0.2,0-0.4,0-0.6,0.1
				c-0.3,0-0.6,0.1-0.9,0.1c-0.6,0.1-1.1,0.1-1.7,0.1C16.8,58.7,16.7,58.7,16.6,58.7C16.6,58.7,16.6,58.7,16.6,58.7"/>
			<path id="Fill-239" class="st2" d="M10.4,53.9c0,0.2,0,0.3,0,0.5C10.4,54.2,10.4,54.1,10.4,53.9C10.4,53.9,10.4,53.9,10.4,53.9"
				/>
			<path id="Fill-240" class="st2" d="M33.5,55.7c-0.6,0.2-1.1,0.3-1.7,0.5c-0.2,0.1-0.5,0.1-0.7,0.2c-0.1,0-0.2,0.1-0.3,0.1
				C31.8,56.2,32.7,56,33.5,55.7C33.6,55.7,33.6,55.7,33.5,55.7C33.6,55.7,33.6,55.7,33.5,55.7"/>
			<path id="Fill-241" class="st2" d="M16.6,58.7C16.6,58.7,16.6,58.7,16.6,58.7L16.6,58.7C16.6,58.7,16.6,58.7,16.6,58.7L16.6,58.7
				"/>
			<path id="Fill-242" class="st2" d="M10.8,58.7L10.8,58.7L10.8,58.7C10.8,58.7,10.8,58.7,10.8,58.7L10.8,58.7"/>
			<path id="Fill-243" class="st2" d="M10.7,58.4c0,0.1,0,0.2,0,0.3h0C10.7,58.6,10.7,58.5,10.7,58.4"/>
			<path id="Fill-244" class="st2" d="M14.8,32.1c0-0.1,0.1-0.1,0.1-0.2C14.9,32,14.9,32.1,14.8,32.1"/>
			<path id="Fill-245" class="st2" d="M12.7,53.2c0.3,0.5,0.6,1,0.9,1.5c0.9,1.4,1.9,2.7,2.9,4l0,0C15.2,57,13.9,55.2,12.7,53.2"/>
			<path id="Fill-246" class="st2" d="M19.5,62C19.5,62,19.5,62,19.5,62c1.3,1.4,2.6,2.6,4,3.8C22.1,64.7,20.7,63.4,19.5,62"/>
			<path id="Fill-247" class="st2" d="M5.4,26.4c-0.1,1.1-0.1,2.2-0.1,3.4c0,0.4,0,0.7,0.1,1.1C5.2,29.4,5.3,27.9,5.4,26.4"/>
			<path id="Fill-248" class="st2" d="M8.2,44.2c0.1,0.1,0.1,0.3,0.2,0.4c0,0,0,0,0,0C8.3,44.4,8.3,44.3,8.2,44.2"/>
			<path id="Fill-249" class="st2" d="M37.6,54.5c1.4-0.4,2.8-0.9,4.2-1.4c-0.1,0-0.2,0.1-0.3,0.1C40.2,53.6,38.9,54.1,37.6,54.5
				C37.6,54.5,37.6,54.5,37.6,54.5"/>
			<path id="Fill-250" class="st2" d="M39.1,4.3c0.1,0,0.2-0.1,0.3-0.1C39.3,4.2,39.2,4.3,39.1,4.3"/>
			<path id="Fill-251" class="st2" d="M7.1,40.7c-0.1-0.5-0.3-0.9-0.4-1.4C6.8,39.8,6.9,40.2,7.1,40.7"/>
			<path id="Fill-252" class="st2" d="M6.6,39.1c-0.1-0.5-0.2-1-0.4-1.4C6.4,38.2,6.5,38.6,6.6,39.1"/>
			<path id="Fill-253" class="st2" d="M10.5,55.6c0,0.1,0,0.1,0,0.2c0-0.1,0-0.2,0-0.3C10.5,55.6,10.5,55.6,10.5,55.6"/>
			<path id="Fill-254" class="st2" d="M7.5,42.2c-0.1-0.4-0.3-0.9-0.4-1.3C7.3,41.4,7.4,41.8,7.5,42.2"/>
			<path id="Fill-255" class="st2" d="M8.1,43.7c-0.1-0.4-0.3-0.8-0.4-1.1C7.8,42.9,7.9,43.3,8.1,43.7"/>
			<path id="Fill-256" class="st2" d="M5.9,35.7c-0.1-0.4-0.1-0.8-0.2-1.2C5.7,34.9,5.8,35.3,5.9,35.7"/>
			<path id="Fill-257" class="st2" d="M6.2,37.5C6.1,37,6,36.5,5.9,36.1C6,36.5,6.1,37,6.2,37.5"/>
			<path id="Fill-258" class="st2" d="M13.4,8.7c0.1-0.1,0.2-0.1,0.2-0.2C13.6,8.5,13.5,8.6,13.4,8.7"/>
			<path id="Fill-259" class="st2" d="M5.4,25.9c0-0.3,0.1-0.7,0.1-1C5.4,25.2,5.4,25.6,5.4,25.9"/>
			<path id="Fill-260" class="st2" d="M5.6,33.8c0-0.3-0.1-0.6-0.1-0.9C5.5,33.2,5.6,33.5,5.6,33.8"/>
			<path id="Fill-261" class="st2" d="M57.9,74.3c0.4-0.2,0.8-0.4,1.2-0.6C58.7,74,58.3,74.2,57.9,74.3
				C57.9,74.4,57.9,74.4,57.9,74.3"/>
			<path id="Fill-262" class="st2" d="M5.4,32.2c0-0.3-0.1-0.7-0.1-1C5.4,31.6,5.4,31.9,5.4,32.2"/>
			<path id="Fill-263" class="st2" d="M35.3,73.4c-0.1,0-0.2-0.1-0.3-0.1C35.1,73.3,35.2,73.3,35.3,73.4"/>
			<path id="Fill-264" class="st2" d="M14.6,71.8c-0.2-0.1-0.4-0.2-0.6-0.3C14.2,71.6,14.4,71.7,14.6,71.8"/>
			<path id="Fill-265" class="st2" d="M13.1,70.9c-0.1-0.1-0.2-0.1-0.3-0.2C12.9,70.8,13,70.8,13.1,70.9"/>
			<path id="Fill-266" class="st2" d="M13.9,71.4c-0.1-0.1-0.3-0.2-0.4-0.3C13.6,71.2,13.7,71.3,13.9,71.4"/>
			<path id="Fill-267" class="st2" d="M20,75.2C20,75.2,20,75.2,20,75.2C20,75.2,20,75.2,20,75.2"/>
			<path id="Fill-268" class="st2" d="M25.4,14.9c0.1-0.2,0.3-0.3,0.4-0.5C25.7,14.5,25.5,14.7,25.4,14.9"/>
			<path id="Fill-269" class="st2" d="M12.7,66.1C12.7,66.1,12.7,66.1,12.7,66.1C12.7,66.1,12.7,66.1,12.7,66.1"/>
			<path id="Fill-270" class="st2" d="M11.7,63.2c0-0.1,0-0.1-0.1-0.2C11.7,63.1,11.7,63.2,11.7,63.2"/>
			<path id="Fill-271" class="st2" d="M1.4,54.8c-0.1-0.1-0.1-0.2-0.2-0.3C1.3,54.6,1.4,54.7,1.4,54.8"/>
			<path id="Fill-272" class="st2" d="M10.6,57.4c0-0.1,0-0.3,0-0.4C10.6,57.1,10.6,57.3,10.6,57.4"/>
			<path id="Fill-273" class="st2" d="M1.5,54.9c1.4,2.1,4.1,3,6.8,3.5c0,0,0,0,0,0c-1.8-0.3-3.7-0.9-5.1-1.9
				c-0.1-0.1-0.2-0.2-0.3-0.2c0,0,0,0-0.1-0.1C2.3,55.9,1.9,55.4,1.5,54.9"/>
			<path id="Fill-274" class="st2" d="M12.1,64.7C12.1,64.7,12.1,64.6,12.1,64.7C12.1,64.6,12.1,64.7,12.1,64.7"/>
			<path id="Fill-275" class="st2" d="M56,53.4c-0.1,0.1-0.2,0.2-0.2,0.3C55.8,53.6,55.9,53.5,56,53.4"/>
			<path id="Fill-276" class="st2" d="M61.8,71.2c0.2,0,0.4,0,0.6-0.1C62.2,71.2,62,71.2,61.8,71.2"/>
			<path id="Fill-277" class="st2" d="M31.6,9c-0.1,0.1-0.1,0.1-0.2,0.2c0.3-0.3,0.6-0.5,0.9-0.7C32.1,8.6,31.8,8.8,31.6,9"/>
			<path id="Fill-278" class="st2" d="M76,26.8C76,26.8,76,26.8,76,26.8C76,26.8,76,26.8,76,26.8"/>
			<path id="Fill-279" class="st2" d="M49.3,2.2c0.2,0,0.5,0,0.7,0.1C49.8,2.2,49.6,2.2,49.3,2.2"/>
			<path id="Fill-280" class="st2" d="M26.5,13.6c0.1-0.1,0.2-0.3,0.4-0.4C26.8,13.4,26.7,13.5,26.5,13.6"/>
			<path id="Fill-281" class="st2" d="M39.8,4c0.2-0.1,0.4-0.1,0.5-0.2C40.1,3.9,39.9,4,39.8,4"/>
			<path id="Fill-282" class="st2" d="M32.8,8C32.8,8,32.8,8,32.8,8C32.8,8,32.8,8,32.8,8"/>
			<path id="Fill-283" class="st2" d="M63.1,70.9c0.1,0,0.3-0.1,0.4-0.2C63.3,70.8,63.2,70.9,63.1,70.9"/>
			<path id="Fill-284" class="st2" d="M50.9,2.3c0.2,0,0.4,0.1,0.6,0.1C51.3,2.4,51.1,2.4,50.9,2.3"/>
			<path id="Fill-285" class="st2" d="M28.9,11.2c0.1-0.1,0.2-0.2,0.4-0.3C29.2,11,29,11.1,28.9,11.2"/>
			<path id="Fill-286" class="st2" d="M27.7,12.4c0.1-0.1,0.2-0.2,0.3-0.3C27.9,12.2,27.8,12.3,27.7,12.4"/>
			<path id="Fill-287" class="st2" d="M62.5,71.1c0.2,0,0.3-0.1,0.5-0.1C62.8,71,62.7,71.1,62.5,71.1"/>
			<path id="Fill-288" class="st2" d="M50.1,2.2c0.2,0,0.4,0,0.7,0.1C50.5,2.3,50.3,2.3,50.1,2.2"/>
			<path id="Fill-289" class="st2" d="M40.5,3.8c0.2-0.1,0.4-0.2,0.6-0.2C40.9,3.6,40.7,3.7,40.5,3.8"/>
			<path id="Fill-290" class="st2" d="M30.1,10.2c0.2-0.1,0.3-0.3,0.5-0.4C30.4,9.9,30.3,10,30.1,10.2"/>
			<path id="Fill-291" class="st2" d="M11.7,25.3c0.5,1,1,2.1,1.6,3.2c0.6-1.4,1.3-2.7,2-4c-0.3-0.5-0.5-1-0.8-1.5
				c-0.3-0.7-0.7-1.4-0.9-2.1c-1.1,0.3-2.2,0.7-3.4,1.2C10.7,23,11.2,24.1,11.7,25.3"/>
			<path id="Fill-292" class="st2" d="M33.6,55.7c1.3-0.4,2.7-0.8,4-1.2c0,0,0,0,0,0C36.3,54.9,34.9,55.3,33.6,55.7
				C33.6,55.7,33.6,55.7,33.6,55.7"/>
			<path id="Fill-293" class="st2" d="M43.5,65.2c0.1-0.1,0.2-0.2,0.3-0.2C43.8,65,43.7,65.1,43.5,65.2
				C43.5,65.2,43.5,65.2,43.5,65.2"/>
			<path id="Fill-294" class="st2" d="M15.1,31.5c0.9,1.6,2,3.2,3.1,4.9c1.3,2,2.8,4.1,4.3,6.1c1.6,2.1,3.3,4.2,5,6.3
				c1.7,2.1,3.5,4.1,5.3,6c0.2,0.3,0.5,0.5,0.7,0.8c0.6-0.2,1.1-0.3,1.7-0.5c0.8-0.2,1.5-0.5,2.3-0.7c-0.6-0.7-1.3-1.3-1.9-2
				c-1.8-1.9-3.6-4-5.3-6c-1.7-2.1-3.4-4.2-5-6.3c-1.5-2.1-3-4.1-4.3-6.1c-1.3-2-2.5-3.9-3.6-5.8c-0.1-0.3-0.3-0.5-0.4-0.8
				c-0.5,1-1,2-1.4,3C15.4,30.8,15.2,31.2,15.1,31.5"/>
			<path id="Fill-295" class="st2" d="M8.8,16.6c0.1,0.8,0.3,1.7,0.6,2.6c0.5-0.2,1-0.5,1.5-0.7c0.6-0.2,1.1-0.4,1.7-0.6
				c-0.5-1.4-0.8-2.6-0.9-3.7c-0.2-1.2-0.2-2.2,0-3c0.1-0.4,0.2-0.8,0.4-1.1c-1.3,1.4-2.4,3-3.4,4.7C8.6,15.3,8.7,15.9,8.8,16.6"/>
			<path id="Fill-296" class="st2" d="M63.1,70.9c0,0-0.1,0-0.1,0.1c-0.1,0-0.3,0.1-0.5,0.1c0,0-0.1,0-0.1,0c-0.2,0-0.4,0.1-0.6,0.1
				c-0.8,0-1.8-0.2-3-0.5c-1.1-0.4-2.4-0.9-3.7-1.7c-1.3-0.7-2.8-1.7-4.3-2.8c-0.6-0.4-1.2-0.9-1.9-1.4c-1,0.8-2,1.6-3,2.3
				c0.7,0.5,1.3,1,2,1.5c1.5,1.1,3,2,4.3,2.8c1.4,0.8,2.6,1.3,3.7,1.7c1.1,0.4,2.1,0.6,3,0.5c0.2,0,0.4,0,0.6-0.1
				c0.5-0.3,1-0.5,1.4-0.8c0.3-0.2,0.6-0.4,0.9-0.7c-0.3,0.2-0.6,0.4-0.9,0.7c-0.1,0.1-0.2,0.1-0.3,0.2c0.3-0.2,0.7-0.5,1-0.7
				c-0.6,0.4-1.2,0.8-1.7,1.2c0.4-0.1,0.8-0.3,1-0.5l2.9-2.4c-0.1,0.1-0.2,0.1-0.2,0.2c0,0-0.1,0.1-0.1,0.1
				C63.3,70.8,63.2,70.9,63.1,70.9"/>
			<path id="Fill-297" class="st2" d="M17,27.4c-0.1,0.2-0.2,0.5-0.4,0.7C16.7,27.9,16.9,27.7,17,27.4C17,27.4,17,27.4,17,27.4"/>
			<path id="Fill-298" class="st2" d="M38.1,60.3c1.7,1.6,3.4,3.2,5.1,4.6c0.1,0.1,0.2,0.2,0.3,0.3c1-0.7,2-1.5,3-2.3
				c-0.2-0.1-0.3-0.2-0.5-0.4c-1.7-1.4-3.4-2.9-5.1-4.6c-0.2-0.2-0.3-0.3-0.5-0.5c-1.3,0.5-2.7,0.9-4,1.3
				C37,59.2,37.6,59.8,38.1,60.3"/>
			<path id="Fill-299" class="st2" d="M45.4,63.7c-0.3,0.2-0.6,0.5-0.9,0.7C44.8,64.2,45.1,64,45.4,63.7"/>
			<path id="Fill-300" class="st2" d="M45.6,63.6c0.3-0.3,0.6-0.5,1-0.8c0,0,0,0,0,0C46.2,63.1,45.9,63.4,45.6,63.6"/>
			<path id="Fill-301" class="st2" d="M9.8,11.6c-0.3,0.2-0.5,0.5-0.7,0.9c0.3-0.4,0.7-0.8,1.1-1.2L9.8,11.6"/>
			<path id="Fill-302" class="st2" d="M16,29.5c0.1-0.3,0.3-0.6,0.4-0.9C16.3,28.9,16.1,29.2,16,29.5"/>
			<path id="Fill-303" class="st2" d="M15.5,30.5c0,0.1-0.1,0.2-0.1,0.3c0.1-0.2,0.2-0.4,0.2-0.5C15.6,30.4,15.6,30.4,15.5,30.5"/>
			<path id="Fill-304" class="st2" d="M59.6,73.5c0.3-0.2,0.6-0.3,0.8-0.5C60.1,73.2,59.8,73.4,59.6,73.5
				C59.6,73.5,59.6,73.5,59.6,73.5"/>
			<path id="Fill-305" class="st2" d="M37.6,54.5C37.6,54.5,37.6,54.5,37.6,54.5C37.6,54.5,37.6,54.5,37.6,54.5
				C37.6,54.5,37.6,54.5,37.6,54.5C37.6,54.5,37.6,54.5,37.6,54.5"/>
			<path id="Fill-306" class="st2" d="M17.4,28.2c1.1,1.9,2.3,3.8,3.6,5.8c1.3,2,2.8,4.1,4.3,6.1c1.6,2.1,3.3,4.2,5,6.3
				c1.7,2.1,3.5,4.1,5.3,6c0.6,0.7,1.3,1.3,1.9,2c0,0,0,0,0,0c-0.6-0.7-1.3-1.3-1.9-2c-1.8-1.9-3.6-4-5.3-6c-1.7-2.1-3.4-4.2-5-6.3
				c-1.5-2.1-3-4.1-4.3-6.1C19.7,32.1,18.5,30.1,17.4,28.2c-0.1-0.3-0.3-0.5-0.4-0.8c0,0,0,0,0,0C17.1,27.7,17.3,28,17.4,28.2"/>
			<path id="Fill-307" class="st2" d="M15.3,24.4C15.4,24.4,15.4,24.4,15.3,24.4c-0.3-0.5-0.5-1-0.7-1.5c-0.3-0.7-0.7-1.4-1-2.1
				c0,0,0,0,0,0c0.3,0.7,0.6,1.4,0.9,2.1C14.8,23.4,15.1,23.9,15.3,24.4"/>
			<path id="Fill-308" class="st2" d="M41,57.9c-0.2-0.2-0.3-0.3-0.5-0.5c0,0,0,0,0,0C40.6,57.5,40.8,57.7,41,57.9
				c1.7,1.7,3.4,3.2,5.1,4.6c0.2,0.1,0.3,0.2,0.5,0.4c0,0,0,0,0,0c-0.2-0.1-0.3-0.3-0.5-0.4C44.4,61.1,42.7,59.5,41,57.9"/>
			<path id="Fill-309" class="st2" d="M17,27.4C17,27.4,17,27.4,17,27.4C17,27.4,17,27.4,17,27.4C17,27.4,17,27.4,17,27.4
				C17,27.4,17,27.4,17,27.4"/>
			<path id="Fill-310" class="st2" d="M50.8,66.2c1.5,1.1,3,2,4.3,2.8c1.3,0.8,2.6,1.3,3.7,1.7c1.1,0.4,2.1,0.6,3,0.5
				c0.2,0,0.4,0,0.6-0.1c0,0,0.1,0,0.1,0c0.2,0,0.3-0.1,0.5-0.1c0,0,0.1,0,0.1-0.1c0.1,0,0.3-0.1,0.4-0.2c0.1,0,0.1-0.1,0.1-0.1
				c0.1-0.1,0.2-0.1,0.3-0.2c-0.5,0.4-1.2,0.7-2.1,0.7c-0.8,0-1.8-0.2-3-0.5c-1.1-0.4-2.4-0.9-3.7-1.7
				C53.8,68.2,52.3,67.3,50.8,66.2c-0.6-0.5-1.2-0.9-1.9-1.4c0,0,0,0,0,0C49.6,65.3,50.2,65.8,50.8,66.2"/>
			<path id="Fill-311" class="st2" d="M11.6,11.2c-0.2,0.8-0.2,1.8,0,3c0.2,1.1,0.5,2.3,0.9,3.7c0,0,0,0,0,0
				c-0.5-1.4-0.8-2.6-0.9-3.7C11.5,13,11.5,12,11.6,11.2c0.1-0.4,0.3-0.8,0.4-1.1c0,0,0,0-0.1,0.1C11.8,10.4,11.7,10.8,11.6,11.2"/>
			<path id="Fill-312" class="st2" d="M46.5,62.8C46.5,62.8,46.5,62.9,46.5,62.8C46.5,62.9,46.5,62.8,46.5,62.8
				C46.5,62.8,46.5,62.8,46.5,62.8C46.5,62.8,46.5,62.8,46.5,62.8"/>
			<path id="Fill-313" class="st2" d="M63.6,70.7c0,0-0.1,0.1-0.1,0.1C63.5,70.7,63.6,70.7,63.6,70.7"/>
			<path id="Fill-314" class="st2" d="M63,71c0,0,0.1,0,0.1-0.1C63,71,63,71,63,71"/>
			<path id="Fill-315" class="st2" d="M62.4,71.1C62.5,71.1,62.5,71.1,62.4,71.1C62.5,71.1,62.5,71.1,62.4,71.1"/>
			<path id="Fill-316" class="st2" d="M67.9,31.4c-0.1,0.4-0.2,0.7-0.3,1.1c0,0.1-0.1,0.2-0.1,0.3c-0.1,0.3-0.2,0.5-0.2,0.7
				c0,0.1,0,0.1-0.1,0.2c-0.8,2.6-1.9,5.1-3.1,7.5c-0.1,0.2-0.2,0.4-0.3,0.6c-0.1,0.2-0.2,0.4-0.3,0.5c1.2-0.8,2.5-1.7,3.6-2.7
				c0.5-0.4,1-0.8,1.4-1.2c0.8-2.1,1.5-4.2,2-6.4c-0.8-0.7-1.6-1.3-2.4-1.9c-0.1,0.4-0.2,0.7-0.3,1.1C68,31.2,67.9,31.3,67.9,31.4"
				/>
			<path id="Fill-317" class="st2" d="M14.6,71.8C14.6,71.8,14.6,71.8,14.6,71.8c-0.2-0.1-0.4-0.2-0.6-0.3c-0.1,0-0.1-0.1-0.2-0.1
				c-0.1-0.1-0.3-0.2-0.4-0.3c-0.1-0.1-0.2-0.1-0.3-0.2c-0.1-0.1-0.2-0.1-0.3-0.2c-0.2-0.2-0.4-0.3-0.6-0.5c1.5,1.3,3,2.8,4.9,3.7
				c0.3,0.2,0.7,0.3,1,0.5c-1.2-0.6-2.3-1.4-3.3-2.3C14.7,72,14.7,71.9,14.6,71.8"/>
			<path id="Fill-318" class="st2" d="M56,53.4c-0.1,0.1-0.2,0.2-0.2,0.3c-0.2,0.2-0.3,0.4-0.5,0.6c-2.6,3.1-5.5,6-8.7,8.6
				c0.8,0.7,1.6,1.3,2.4,1.9c4.7-3.8,8.8-8.3,12.3-13.2c1.4-2,2.7-4,4-6.2c-1.9,1.3-3.9,2.6-6,3.7C58.2,50.6,57.1,52,56,53.4"/>
			<path id="Fill-319" class="st2" d="M43.3,65.3c-2.2,1.6-4.6,3.1-7.1,4.3c0,0,0,0,0,0c-0.3,0.1-0.5,0.3-0.8,0.4
				c-0.2,0.1-0.3,0.1-0.5,0.2c-0.3,0.1-0.6,0.3-1,0.4c-0.1,0-0.1,0.1-0.2,0.1c-0.7,0.3-1.4,0.6-2.2,0.9c0.6,0.3,1.3,0.7,1.9,1
				c0.5,0.2,0.9,0.4,1.4,0.6c2.2-0.9,4.4-2,6.3-3.1c1.6-0.9,3.1-1.9,4.6-3c-0.8-0.6-1.6-1.3-2.4-1.9C43.5,65.2,43.4,65.3,43.3,65.3"
				/>
			<path id="Fill-320" class="st2" d="M17,72.8c0.7,0.8,1.6,1.4,2.5,2c4.1,1.2,8.5,0.7,12.8-0.6c-1.1-0.5-2.3-1.1-3.4-1.8
				C24.9,73.6,20.8,74,17,72.8"/>
			<path id="Fill-321" class="st2" d="M64.9,10.2c0,0,0.1,0.1,0.1,0.1c4.2,4.1,4.8,10.5,3.9,16.5c0.8,0.6,1.6,1.2,2.4,1.9
				c0.1-0.4,0.1-0.9,0.2-1.3c0.4-4.2,0.1-8.6-2-12.2c-1.3-2.2-3.2-3.8-5.1-5.4c0.1,0.1,0.1,0.1,0.2,0.2C64.7,10,64.8,10.1,64.9,10.2
				"/>
			<path id="Fill-322" class="st2" d="M32.3,71.9c-0.1,0-0.1-0.1-0.2-0.1C32.2,71.9,32.2,71.9,32.3,71.9"/>
			<path id="Fill-323" class="st2" d="M33.6,72.6c0.1,0,0.2,0.1,0.3,0.1C33.8,72.7,33.7,72.6,33.6,72.6
				C33.6,72.6,33.6,72.6,33.6,72.6"/>
			<path id="Fill-324" class="st2" d="M45.4,63.7c-0.3,0.2-0.6,0.5-0.9,0.7c-0.2,0.2-0.4,0.3-0.6,0.5c-0.1,0.1-0.2,0.2-0.3,0.2
				c0.8,0.7,1.6,1.3,2.4,1.9c1-0.7,2-1.5,3-2.3c-0.8-0.6-1.6-1.3-2.4-1.9c-0.3,0.3-0.6,0.5-1,0.8C45.5,63.7,45.5,63.7,45.4,63.7"/>
			<path id="Fill-325" class="st2" d="M46.5,62.9c0.8,0.7,1.6,1.3,2.4,1.9c0,0,0,0,0,0C48.2,64.2,47.4,63.5,46.5,62.9
				C46.5,62.8,46.5,62.9,46.5,62.9"/>
			<path id="Fill-326" class="st2" d="M13.1,70.9c0.1,0.1,0.2,0.2,0.3,0.2c0.1,0.1,0.3,0.2,0.4,0.3c0.1,0,0.1,0.1,0.2,0.1
				c0.2,0.1,0.4,0.2,0.6,0.3c0,0,0,0,0,0c0,0-0.1-0.1-0.1-0.1c-0.8-0.4-1.6-0.9-2.3-1.5c0.2,0.2,0.4,0.3,0.6,0.5
				C12.9,70.8,13,70.8,13.1,70.9"/>
			<path id="Fill-327" class="st2" d="M43.5,65.1c-2.3,1.7-4.7,3.2-7.3,4.4c-1.4,0.7-3,1.4-4.6,2c0,0,0,0,0,0c0.8-0.3,1.6-0.6,2.4-1
				c0.3-0.1,0.6-0.3,1-0.4c0.2-0.1,0.3-0.1,0.5-0.2c0.3-0.1,0.5-0.3,0.8-0.4c2.5-1.2,4.8-2.7,7.1-4.3C43.4,65.3,43.5,65.2,43.5,65.1
				C43.5,65.2,43.5,65.2,43.5,65.1"/>
			<path id="Fill-328" class="st2" d="M59.2,49.2C59.2,49.2,59.2,49.2,59.2,49.2c-0.8,1.1-1.5,2.1-2.3,3.1
				c-3.1,3.9-6.5,7.5-10.4,10.6c0,0,0,0,0,0c2.4-2,4.6-4.1,6.7-6.4c0.7-0.7,1.3-1.5,2-2.2c0.2-0.2,0.3-0.4,0.5-0.6
				c0.1-0.1,0.2-0.2,0.2-0.3c0.3-0.4,0.6-0.8,0.9-1.2C57.7,51.2,58.5,50.2,59.2,49.2"/>
			<path id="Fill-329" class="st2" d="M17,72.7C17,72.8,17,72.8,17,72.7c3.8,1.2,8,0.8,12-0.3c0,0,0,0,0,0
				C24.9,73.6,20.7,73.9,17,72.7"/>
			<path id="Fill-330" class="st2" d="M63.5,42.3C63.5,42.3,63.5,42.3,63.5,42.3c0.1-0.2,0.2-0.4,0.3-0.5c0.1-0.2,0.2-0.4,0.3-0.6
				c1.2-2.4,2.3-4.9,3.1-7.5c0.1-0.3,0.2-0.6,0.3-0.9c0-0.1,0.1-0.2,0.1-0.3c0.1-0.4,0.2-0.7,0.3-1.1c0.1-0.4,0.2-0.8,0.3-1.3
				c0,0,0,0,0,0c-0.1,0.3-0.1,0.6-0.2,0.8C67,34.9,65.4,38.7,63.5,42.3"/>
			<path id="Fill-331" class="st2" d="M65,10.3c0,0-0.1-0.1-0.1-0.1c-0.1-0.1-0.2-0.2-0.3-0.3c-0.1-0.1-0.2-0.2-0.4-0.3
				c4.9,4.2,5.6,10.9,4.7,17.2c0,0,0,0,0,0C69.8,20.9,69.2,14.5,65,10.3"/>
			<path id="Fill-332" class="st2" d="M43.5,65.1C43.5,65.2,43.5,65.2,43.5,65.1c0.1-0.1,0.2-0.2,0.3-0.2c0.2-0.1,0.4-0.3,0.6-0.5
				c0.3-0.2,0.6-0.5,0.9-0.7c0.1,0,0.1-0.1,0.2-0.1c0.3-0.3,0.6-0.5,1-0.8c0,0,0,0,0,0C45.5,63.6,44.6,64.4,43.5,65.1"/>
			<path id="Fill-333" class="st2" d="M46.5,62.8C46.5,62.8,46.5,62.8,46.5,62.8C46.5,62.8,46.5,62.8,46.5,62.8
				C46.5,62.8,46.5,62.8,46.5,62.8C46.5,62.8,46.5,62.8,46.5,62.8"/>
			<path id="Fill-334" class="st2" d="M43.3,65.3c-2.2,1.6-4.6,3.1-7.1,4.3C38.7,68.4,41.1,66.9,43.3,65.3"/>
			<path id="Fill-335" class="st2" d="M65,10.3c4.2,4.1,4.8,10.6,3.9,16.5h0C69.8,20.8,69.2,14.5,65,10.3"/>
			<path id="Fill-336" class="st2" d="M13.4,71.1c-0.1-0.1-0.2-0.1-0.3-0.2C13.2,71,13.3,71,13.4,71.1"/>
			<path id="Fill-337" class="st2" d="M14.6,71.8C14.6,71.8,14.6,71.8,14.6,71.8C14.6,71.8,14.6,71.8,14.6,71.8
				C14.6,71.8,14.6,71.8,14.6,71.8"/>
			<path id="Fill-338" class="st2" d="M31.7,71.6c0.7-0.3,1.5-0.6,2.2-0.9c0.1,0,0.1-0.1,0.2-0.1C33.3,71,32.5,71.3,31.7,71.6
				C31.7,71.6,31.7,71.6,31.7,71.6"/>
			<path id="Fill-339" class="st2" d="M14,71.5c-0.1,0-0.1-0.1-0.2-0.1C13.9,71.4,14,71.5,14,71.5"/>
			<path id="Fill-340" class="st2" d="M55.7,53.7c-0.2,0.2-0.3,0.4-0.5,0.6C55.4,54.1,55.6,53.9,55.7,53.7"/>
			<path id="Fill-341" class="st2" d="M35.5,70c-0.2,0.1-0.3,0.1-0.5,0.2C35.2,70.1,35.3,70.1,35.5,70"/>
			<path id="Fill-342" class="st2" d="M67.6,32.4c0.1-0.4,0.2-0.7,0.3-1.1C67.8,31.7,67.7,32.1,67.6,32.4"/>
			<path id="Fill-343" class="st2" d="M56.9,52.2c-0.3,0.4-0.6,0.8-0.9,1.2c1.1-1.4,2.2-2.8,3.3-4.2c0,0,0,0,0,0
				C58.5,50.2,57.7,51.2,56.9,52.2"/>
			<path id="Fill-344" class="st2" d="M12.2,70.2c0.2,0.2,0.4,0.3,0.6,0.5C12.6,70.5,12.4,70.4,12.2,70.2"/>
			<path id="Fill-345" class="st2" d="M67.5,32.7c-0.1,0.3-0.2,0.6-0.3,0.9c0-0.1,0-0.1,0.1-0.2C67.4,33.2,67.5,33,67.5,32.7"/>
			<path id="Fill-346" class="st2" d="M64.6,9.9c0.1,0.1,0.2,0.2,0.3,0.3C64.8,10.1,64.7,10,64.6,9.9"/>
			<path id="Fill-347" class="st2" d="M63.8,41.7c0.1-0.2,0.2-0.4,0.3-0.6C64,41.3,63.9,41.5,63.8,41.7"/>
			<path id="Fill-348" class="st2" d="M45.6,63.6c-0.1,0-0.1,0.1-0.2,0.1C45.5,63.7,45.5,63.7,45.6,63.6"/>
			<path id="Fill-349" class="st2" d="M44.5,64.5c-0.2,0.2-0.4,0.3-0.6,0.5C44.1,64.8,44.3,64.6,44.5,64.5"/>
			<path id="Fill-350" class="st2" d="M62.9,43.4c0,0.1-0.1,0.2-0.1,0.2C62.8,43.6,62.8,43.5,62.9,43.4"/>
			<path id="Fill-351" class="st2" d="M11,60.4c0-0.2-0.1-0.3-0.1-0.5C11,60.1,11,60.2,11,60.4"/>
			<path id="Fill-352" class="st2" d="M63.4,42.4c0,0,0.1-0.1,0.1-0.1c0,0,0,0,0,0C63.5,42.3,63.4,42.4,63.4,42.4"/>
			<path id="Fill-353" class="st2" d="M10.8,58.7c0,0.1,0,0.2,0,0.3C10.8,58.9,10.8,58.8,10.8,58.7C10.8,58.7,10.8,58.7,10.8,58.7"
				/>
			<path id="Fill-354" class="st2" d="M11.3,61.8c0-0.1,0-0.2-0.1-0.3C11.3,61.6,11.3,61.7,11.3,61.8"/>
			<path id="Fill-355" class="st2" d="M72.9,34.2c-0.3,0.4-0.6,0.7-0.9,1.1c-1,1.1-2.1,2.1-3.3,3.1c0,0-0.1,0.1-0.1,0.1
				c-1,2.4-2.1,4.7-3.4,7c1.6-1.1,3.2-2.3,4.7-3.6c1.7-1.5,3.6-3.2,5.1-5.2c-0.4-0.6-0.9-1.2-1.4-1.8C73.4,34.7,73.1,34.4,72.9,34.2
				"/>
			<path id="Fill-356" class="st2" d="M16.7,58.8C16.6,58.8,16.6,58.8,16.7,58.8L16.7,58.8c0.9,1.1,1.8,2.2,2.8,3.2c0,0,0,0,0,0
				C18.5,61,17.6,59.9,16.7,58.8"/>
			<path id="Fill-357" class="st2" d="M55,47.3c-3.4,1.8-6.9,3.3-10.4,4.7c-0.3,0.1-0.5,0.2-0.8,0.3c-0.7,0.3-1.3,0.5-2,0.7
				c-1.4,0.5-2.8,1-4.2,1.4c1,1,1.9,1.9,2.9,2.9c2-0.7,3.9-1.4,5.8-2.1c4.4-1.7,8.7-3.7,12.9-6.1c1.6-2.2,3-4.5,4.3-6.9c0,0,0,0,0,0
				C60.7,44.2,57.9,45.8,55,47.3"/>
			<path id="Fill-358" class="st2" d="M21,58.3c-1.4,0.2-2.9,0.3-4.4,0.4c0.9,1.1,1.9,2.2,2.9,3.3c0.1,0,0.2,0,0.2,0
				c5.7-0.5,11.3-1.7,16.7-3.3c-1-1-1.9-1.9-2.9-3c-0.9,0.3-1.8,0.5-2.8,0.7C27.6,57.3,24.3,57.9,21,58.3"/>
			<path id="Fill-359" class="st2" d="M16.5,62.2c-1-1.1-1.9-2.2-2.8-3.4c-1,0-1.9,0-2.9-0.1c0,0,0,0-0.1,0c0.2,1.1,0.4,2.3,0.6,3.4
				C13.1,62.2,14.8,62.3,16.5,62.2"/>
			<path id="Fill-360" class="st2" d="M8.3,58.4C5.7,58,2.9,57,1.5,54.9c0-0.1-0.1-0.1-0.1-0.2c-0.1-0.1-0.1-0.2-0.2-0.3
				c-0.1-0.2-0.2-0.4-0.3-0.6c0.1,0.4,0.3,0.8,0.4,1.2c0.3,0.9,0.6,1.8,1,2.7c0.9,1.9,2.9,2.9,4.8,3.5c0.6,0.2,1.1,0.3,1.7,0.4
				c0-0.1-0.1-0.3-0.1-0.4C8.6,60.3,8.5,59.4,8.3,58.4"/>
			<path id="Fill-361" class="st2" d="M76,26.8c0.3,1.8-0.4,3.5-1.4,5.2c0.6,0.8,1.2,1.6,1.8,2.5c0.4-0.8,0.7-1.6,0.8-2.4
				c0.5-2.2-0.7-4.3-1.4-6.4c0.1,0.2,0.1,0.3,0.2,0.5C75.9,26.4,75.9,26.6,76,26.8C76,26.8,76,26.8,76,26.8"/>
			<path id="Fill-362" class="st2" d="M37.6,54.5c-1.3,0.4-2.7,0.8-4,1.2c1,1,1.9,2,2.9,3c1.3-0.4,2.7-0.8,4-1.3
				C39.5,56.5,38.6,55.5,37.6,54.5"/>
			<path id="Fill-363" class="st2" d="M40.5,57.4C40.5,57.4,40.5,57.4,40.5,57.4c-0.9-0.9-1.9-1.9-2.9-2.9c0,0,0,0,0,0
				C38.6,55.5,39.5,56.5,40.5,57.4"/>
			<path id="Fill-364" class="st2" d="M63.5,42.3c0,0.1-0.1,0.1-0.1,0.1c-0.2,0.3-0.4,0.7-0.5,1c0,0.1-0.1,0.2-0.1,0.2
				c-1.1,1.9-2.3,3.7-3.5,5.5c2.1-1.2,4.1-2.4,6-3.7c1.3-2.2,2.4-4.6,3.4-7C67,39.8,65.3,41.1,63.5,42.3"/>
			<path id="Fill-365" class="st2" d="M63.5,42.3c-1.3,2.4-2.7,4.7-4.3,6.9c0,0,0,0,0,0c1.3-1.8,2.5-3.6,3.5-5.5
				c0-0.1,0.1-0.2,0.1-0.2c0.2-0.3,0.4-0.7,0.5-1C63.4,42.4,63.5,42.3,63.5,42.3C63.5,42.3,63.5,42.3,63.5,42.3"/>
			<path id="Fill-366" class="st2" d="M63.4,42.4c-0.2,0.3-0.4,0.7-0.5,1C63.1,43.1,63.2,42.8,63.4,42.4"/>
			<path id="Fill-367" class="st2" d="M59.2,49.2c1.3-1.8,2.4-3.6,3.5-5.5C61.6,45.6,60.5,47.4,59.2,49.2
				C59.2,49.2,59.2,49.2,59.2,49.2"/>
			<path id="Fill-368" class="st2" d="M24.5,57.8c2.1-0.4,4.2-0.8,6.3-1.3c0.1,0,0.2-0.1,0.3-0.1C29,56.9,26.8,57.4,24.5,57.8
				c-1.5,0.3-3,0.5-4.5,0.7c0.3,0,0.6-0.1,1-0.1C22.2,58.2,23.4,58,24.5,57.8"/>
			<path id="Fill-369" class="st2" d="M8.3,58.4c-0.2,0-0.3-0.1-0.5-0.1c-1.5-0.3-3.3-0.8-4.6-1.8C4.6,57.5,6.5,58.1,8.3,58.4
				C8.3,58.4,8.3,58.4,8.3,58.4"/>
			<path id="Fill-370" class="st2" d="M70.7,36.5c-0.2,0.2-0.3,0.3-0.5,0.5C70.4,36.8,70.6,36.6,70.7,36.5"/>
			<path id="Fill-371" class="st2" d="M16.9,58.7c-0.1,0-0.2,0-0.2,0c0,0,0,0,0,0C16.7,58.7,16.8,58.7,16.9,58.7"/>
			<path id="Fill-372" class="st2" d="M1.4,54.8c0,0.1,0.1,0.1,0.1,0.2c0.3,0.5,0.7,0.9,1.2,1.3C2,55.6,1.4,54.9,1,53.9
				c0.1,0.2,0.2,0.4,0.3,0.6C1.3,54.6,1.4,54.7,1.4,54.8"/>
			<path id="Fill-373" class="st2" d="M16.9,58.7c0.6,0,1.1-0.1,1.7-0.1C18,58.6,17.5,58.7,16.9,58.7"/>
			<path id="Fill-374" class="st2" d="M56.5,46.5c0.3-0.1,0.5-0.3,0.8-0.4C57.1,46.2,56.8,46.3,56.5,46.5"/>
			<path id="Fill-375" class="st2" d="M33.6,55.7C33.6,55.7,33.6,55.7,33.6,55.7C33.6,55.7,33.6,55.7,33.6,55.7L33.6,55.7"/>
			<path id="Fill-376" class="st2" d="M57.3,46c0.2-0.1,0.5-0.3,0.7-0.4C57.8,45.8,57.6,45.9,57.3,46"/>
			<path id="Fill-377" class="st2" d="M58.1,45.6c0.8-0.5,1.6-0.9,2.4-1.4C59.6,44.7,58.8,45.2,58.1,45.6"/>
			<path id="Fill-378" class="st2" d="M43.7,52.3c0.3-0.1,0.5-0.2,0.8-0.3c2.1-0.8,4.3-1.8,6.3-2.7c1.4-0.6,2.7-1.3,4.1-2
				c0.5-0.3,1.1-0.6,1.6-0.9c-1.9,1-3.8,2-5.7,2.9c-3.1,1.4-6.2,2.7-9.4,3.9c0.1,0,0.2-0.1,0.3-0.1C42.4,52.8,43.1,52.6,43.7,52.3"
				/>
			<path id="Fill-379" class="st2" d="M63.5,42.3C63.5,42.3,63.5,42.3,63.5,42.3c-0.6,0.4-1.2,0.8-1.8,1.2
				C62.3,43.1,62.9,42.7,63.5,42.3C63.5,42.3,63.5,42.3,63.5,42.3"/>
			<path id="Fill-380" class="st2" d="M60.8,44c-0.1,0.1-0.3,0.2-0.4,0.2c0.1,0,0.1-0.1,0.2-0.1C60.7,44.1,60.7,44,60.8,44"/>
			<path id="Fill-381" class="st2" d="M60.8,44c0.3-0.2,0.6-0.4,0.9-0.5C61.4,43.6,61.1,43.8,60.8,44"/>
			<path id="Fill-382" class="st2" d="M31.2,56.3c0.2-0.1,0.5-0.1,0.7-0.2C31.6,56.2,31.4,56.3,31.2,56.3"/>
			<path id="Fill-383" class="st2" d="M31.9,56.2c0.6-0.1,1.1-0.3,1.7-0.5C33,55.9,32.4,56,31.9,56.2"/>
			<path id="Fill-384" class="st2" d="M19.5,58.5c0.2,0,0.4,0,0.6-0.1C19.9,58.5,19.7,58.5,19.5,58.5"/>
			<path id="Fill-385" class="st2" d="M18.6,58.6c0.3,0,0.6-0.1,0.9-0.1C19.2,58.5,18.9,58.6,18.6,58.6"/>
			<path id="Fill-386" class="st2" d="M16.6,58.7C16.6,58.7,16.6,58.7,16.6,58.7C16.6,58.7,16.6,58.7,16.6,58.7
				C16.6,58.7,16.6,58.7,16.6,58.7L16.6,58.7"/>
			<path id="Fill-387" class="st2" d="M10.8,58.7C10.8,58.7,10.8,58.7,10.8,58.7L10.8,58.7C10.8,58.7,10.8,58.7,10.8,58.7L10.8,58.7
				"/>
			<path id="Fill-388" class="st2" d="M63.5,42.3C63.5,42.3,63.5,42.3,63.5,42.3C63.5,42.3,63.5,42.3,63.5,42.3
				C63.5,42.3,63.5,42.3,63.5,42.3C63.5,42.3,63.5,42.3,63.5,42.3"/>
			<path id="Fill-389" class="st2" d="M76,26.8C76,26.8,76,26.8,76,26.8c0-0.2-0.1-0.4-0.1-0.5c-0.1-0.2-0.1-0.4-0.2-0.6
				c0.8,2.1,0,4.4-1.2,6.3c0,0,0,0,0,0C75.5,30.4,76.2,28.6,76,26.8"/>
			<path id="Fill-390" class="st2" d="M41.5,53.2c-1.3,0.5-2.6,0.9-3.9,1.3c0,0,0,0,0,0C38.9,54.1,40.2,53.6,41.5,53.2"/>
			<path id="Fill-391" class="st2" d="M72.9,34.2c-0.7,0.8-1.4,1.6-2.1,2.3c0.1-0.1,0.2-0.2,0.3-0.3c0.3-0.3,0.6-0.6,0.9-1
				C72.3,34.9,72.6,34.5,72.9,34.2C72.9,34.2,72.9,34.2,72.9,34.2"/>
			<path id="Fill-392" class="st2" d="M10.8,58.7c0.2,0,0.4,0,0.7,0c0.7,0,1.5,0.1,2.2,0.1c0,0,0,0,0,0c-0.7,0-1.5,0-2.2-0.1
				C11.3,58.7,11,58.7,10.8,58.7C10.8,58.7,10.8,58.7,10.8,58.7C10.8,58.7,10.8,58.7,10.8,58.7"/>
			<path id="Fill-393" class="st2" d="M2.8,56.3c0.1,0.1,0.2,0.2,0.3,0.2C3.1,56.4,2.9,56.4,2.8,56.3"/>
			<path id="Fill-394" class="st2" d="M2.8,56.2C2.8,56.3,2.8,56.3,2.8,56.2C2.8,56.3,2.8,56.2,2.8,56.2"/>
			<path id="Fill-395" class="st2" d="M68.6,38.4C68.6,38.4,68.6,38.4,68.6,38.4C68.6,38.4,68.7,38.4,68.6,38.4
				c0.6-0.5,1.2-1,1.7-1.5C69.7,37.4,69.2,37.9,68.6,38.4"/>
			<path id="Fill-396" class="st2" d="M33.6,55.7L33.6,55.7c1.3-0.4,2.7-0.8,4-1.2c0,0,0,0,0,0c-0.8,0.2-1.5,0.5-2.3,0.7
				C34.7,55.4,34.1,55.5,33.6,55.7"/>
			<path id="Fill-397" class="st2" d="M37.6,54.5C37.6,54.5,37.6,54.5,37.6,54.5C37.6,54.5,37.6,54.5,37.6,54.5
				C37.6,54.5,37.6,54.5,37.6,54.5C37.6,54.5,37.6,54.5,37.6,54.5"/>
			<path id="Fill-398" class="st2" d="M63.5,42.3C63.5,42.3,63.5,42.3,63.5,42.3c1.2-0.8,2.3-1.6,3.5-2.5c0.5-0.4,1.1-0.9,1.6-1.3
				c0,0,0,0,0,0c-0.5,0.4-1,0.8-1.4,1.2C66,40.5,64.8,41.4,63.5,42.3"/>
			<path id="Fill-399" class="st2" d="M63.5,42.3C63.5,42.3,63.5,42.3,63.5,42.3C63.5,42.3,63.5,42.3,63.5,42.3
				C63.5,42.3,63.5,42.3,63.5,42.3C63.5,42.3,63.5,42.3,63.5,42.3"/>
			<path id="Fill-400" class="st2" d="M63.5,42.3L63.5,42.3C63.5,42.3,63.5,42.3,63.5,42.3L63.5,42.3C63.5,42.3,63.5,42.3,63.5,42.3
				"/>
			<path id="Fill-401" class="st2" d="M43.7,52.3c-0.6,0.3-1.3,0.5-2,0.7C42.4,52.8,43.1,52.6,43.7,52.3"/>
			<path id="Fill-402" class="st2" d="M44.5,52c3.6-1.4,7-3,10.4-4.7c-1.4,0.7-2.7,1.4-4.1,2C48.8,50.3,46.7,51.2,44.5,52"/>
			<path id="Fill-403" class="st2" d="M63.4,42.3C63.5,42.3,63.5,42.3,63.4,42.3C63.5,42.3,63.5,42.3,63.4,42.3"/>
			<path id="Fill-404" class="st2" d="M1.5,54.9c0-0.1-0.1-0.1-0.1-0.2C1.5,54.8,1.5,54.9,1.5,54.9"/>
			<path id="Fill-405" class="st2" d="M11.5,58.8c-0.2,0-0.4,0-0.7,0c1,0.1,1.9,0.1,2.9,0.1c0,0,0,0,0,0
				C13,58.8,12.2,58.8,11.5,58.8"/>
			<path id="Fill-406" class="st2" d="M75.9,26.3c0,0.2,0.1,0.3,0.1,0.5C75.9,26.6,75.9,26.4,75.9,26.3"/>
			<path id="Fill-407" class="st2" d="M68.6,38.5c0,0,0.1-0.1,0.1-0.1C68.7,38.4,68.6,38.4,68.6,38.5C68.6,38.4,68.6,38.5,68.6,38.5
				"/>
			<path id="Fill-408" class="st2" d="M76,26.8c0.2,1.8-0.5,3.6-1.5,5.1c0,0,0,0,0,0C75.5,30.4,76.2,28.6,76,26.8"/>
			<path id="Fill-409" class="st2" d="M21,58.3c3.3-0.4,6.6-1.1,9.8-1.9c-2.1,0.5-4.2,1-6.3,1.3C23.4,58,22.2,58.2,21,58.3"/>
			<path id="Fill-410" class="st2" d="M72,35.2c0.3-0.3,0.6-0.7,0.9-1.1c0,0,0,0,0,0C72.6,34.5,72.3,34.9,72,35.2"/>
			<path id="Fill-411" class="st2" d="M1,53.9c0.1,0.2,0.2,0.4,0.3,0.6C1.2,54.3,1.1,54.1,1,53.9"/>
			<path id="Fill-412" class="st2" d="M67,39.8c-1.1,0.9-2.3,1.7-3.5,2.5v0c1.8-1.2,3.5-2.4,5.1-3.8c0,0,0,0,0,0
				C68.1,38.9,67.5,39.3,67,39.8"/>
			<path id="Fill-413" class="st2" d="M63.5,42.3C63.5,42.3,63.5,42.3,63.5,42.3C63.5,42.3,63.5,42.3,63.5,42.3"/>
			<path id="Fill-414" class="st2" d="M37,19.1c9,1,18.1,3.4,26.1,7.8c1.8,1,3.5,2,5.1,3.2c0.3-1.1,0.5-2.2,0.6-3.3
				c-1.7-1.2-3.4-2.3-5.2-3.3c-8-4.4-17.1-6.8-26.1-7.8c-4.1-0.4-8.4-0.6-12.6-0.3c-1,1.2-1.9,2.4-2.8,3.6
				C27,18.5,32.1,18.6,37,19.1"/>
			<path id="Fill-415" class="st2" d="M9.8,20.6c-0.2-0.5-0.3-0.9-0.4-1.4c-1,0.5-2.1,1-3.1,1.7c-0.3,1.1-0.5,2.2-0.7,3.4
				c1.5-0.9,3.1-1.7,4.7-2.3C10.1,21.4,9.9,21,9.8,20.6"/>
			<path id="Fill-416" class="st2" d="M68.7,28.1c-0.1,0.7-0.3,1.3-0.4,2c0,0,0,0,0,0C68.4,29.5,68.5,28.8,68.7,28.1"/>
			<path id="Fill-417" class="st2" d="M1,26c-1.3,2.2-1.6,4.7-2,7.1c0.5-3.1,2.3-5.6,4.7-7.5c0.2-1.1,0.4-2.3,0.6-3.4
				C3,23.3,1.9,24.5,1,26"/>
			<path id="Fill-418" class="st2" d="M76.3,34.5c-0.4,0.8-0.8,1.5-1.3,2.2c2,2.8,3.3,6.2,2.7,9.8c0.2-1.1,0.4-2.2,0.6-3.4
				C78.8,40,77.9,37.1,76.3,34.5"/>
			<path id="Fill-419" class="st2" d="M24.1,16.3c-0.7,0.9-1.4,1.8-2.1,2.7c0,0,0,0,0,0C22.7,18.1,23.4,17.2,24.1,16.3"/>
			<path id="Fill-420" class="st2" d="M68.7,28c0-0.2,0.1-0.4,0.1-0.6C68.8,27.7,68.7,27.9,68.7,28"/>
			<path id="Fill-421" class="st2" d="M13.7,20.7c0.4-0.1,0.8-0.2,1.2-0.3c1.1-0.3,2.2-0.5,3.4-0.8c0.9-1.3,1.8-2.6,2.8-3.8
				c-2.9,0.4-5.7,1.1-8.4,2c0,0.1,0.1,0.2,0.1,0.3C12.9,19,13.3,19.8,13.7,20.7"/>
			<path id="Fill-422" class="st2" d="M68.8,27.1c0-0.1,0-0.2,0-0.2C68.9,27,68.9,27,68.8,27.1"/>
			<path id="Fill-423" class="st2" d="M24.9,15.5c-0.2,0.2-0.4,0.5-0.6,0.7C24.5,15.9,24.7,15.7,24.9,15.5"/>
			<path id="Fill-424" class="st2" d="M72.9,34.2c0.2-0.2,0.4-0.5,0.6-0.7c0.3-0.5,0.7-1,1-1.5c-0.1-0.1-0.2-0.3-0.3-0.4
				c-0.9-1-1.9-2-2.9-2.9c-0.2,1.1-0.4,2.2-0.6,3.3C71.4,32.7,72.2,33.4,72.9,34.2"/>
			<path id="Fill-425" class="st2" d="M9.3,19.2c0.1,0.4,0.3,0.9,0.4,1.4c0.1,0.4,0.3,0.9,0.5,1.4c1.1-0.5,2.3-0.8,3.4-1.2
				c-0.4-0.9-0.7-1.8-1-2.6c0-0.1-0.1-0.2-0.1-0.3c-0.6,0.2-1.1,0.4-1.7,0.6C10.4,18.7,9.9,18.9,9.3,19.2"/>
			<path id="Fill-426" class="st2" d="M12.6,18.2c0.3,0.8,0.6,1.7,1,2.6c0,0,0,0,0,0C13.3,19.8,12.9,19,12.6,18.2
				c0-0.1,0-0.2-0.1-0.3c0,0,0,0,0,0C12.6,18,12.6,18.1,12.6,18.2"/>
			<path id="Fill-427" class="st2" d="M68.9,26.9c0,0.1,0,0.2,0,0.2c0,0.1,0,0.2-0.1,0.4c0,0.2-0.1,0.4-0.1,0.6c0,0,0,0.1,0,0.1
				c-0.1,0.7-0.3,1.3-0.4,2c0.8,0.6,1.6,1.2,2.4,1.9c0.3-1.1,0.5-2.2,0.6-3.3C70.5,28,69.7,27.4,68.9,26.9
				C68.9,26.8,68.9,26.9,68.9,26.9"/>
			<path id="Fill-428" class="st2" d="M68.2,30.1c0.2-0.6,0.3-1.3,0.4-2c0,0,0-0.1,0-0.1c0-0.2,0.1-0.4,0.1-0.6c0-0.1,0-0.2,0.1-0.4
				c0-0.1,0-0.2,0-0.2c0,0,0-0.1,0-0.1c0,0,0,0,0,0C68.7,27.9,68.5,29,68.2,30.1C68.2,30.1,68.2,30.1,68.2,30.1"/>
			<path id="Fill-429" class="st2" d="M68.8,27.5c0-0.1,0-0.2,0.1-0.4C68.8,27.2,68.8,27.4,68.8,27.5"/>
			<path id="Fill-430" class="st2" d="M68.7,28.1C68.7,28.1,68.7,28.1,68.7,28.1C68.7,28.1,68.7,28.1,68.7,28.1"/>
			<path id="Fill-431" class="st2" d="M68.9,26.8C68.9,26.8,68.9,26.8,68.9,26.8C68.9,26.9,68.9,26.8,68.9,26.8L68.9,26.8"/>
			<path id="Fill-432" class="st2" d="M74.5,32c-0.5,0.8-1,1.5-1.6,2.2c0.2,0.2,0.5,0.5,0.7,0.7c0.5,0.6,1,1.2,1.4,1.8
				c0.5-0.7,1-1.4,1.3-2.2C75.8,33.6,75.2,32.8,74.5,32"/>
			<path id="Fill-433" class="st2" d="M72.9,34.2C72.9,34.2,72.9,34.2,72.9,34.2c0.2-0.2,0.3-0.4,0.5-0.5c0.4-0.5,0.8-1.1,1.2-1.7
				c0,0,0,0,0,0c-0.3,0.5-0.7,1-1,1.5C73.3,33.7,73.1,33.9,72.9,34.2"/>
			<path id="Fill-434" class="st2" d="M73.3,33.6c-0.1,0.2-0.3,0.4-0.4,0.6c0,0,0,0,0,0c0.6-0.7,1.1-1.4,1.6-2.2c0,0,0,0,0,0
				C74.1,32.5,73.7,33.1,73.3,33.6"/>
			<path id="Fill-435" class="st2" d="M9.9,48.1c-0.1-0.3-0.2-0.5-0.4-0.8C9.7,47.6,9.8,47.8,9.9,48.1"/>
			<path id="Fill-436" class="st2" d="M9.2,46.6c-0.1-0.3-0.3-0.6-0.4-0.9C9,46.1,9.1,46.3,9.2,46.6"/>
			<path id="Fill-437" class="st2" d="M20,75.2c-0.2-0.1-0.4-0.3-0.6-0.4c-0.4-0.1-0.8-0.3-1.2-0.5c1.1,0.6,2.2,1.1,3.3,1.6
				c0,0-0.1-0.1-0.1-0.1C20.8,75.7,20.4,75.5,20,75.2C20,75.2,20,75.2,20,75.2"/>
			<path id="Fill-438" class="st2" d="M8.4,44.6c0.1,0.2,0.2,0.4,0.2,0.6C8.5,45,8.5,44.8,8.4,44.6C8.4,44.6,8.4,44.6,8.4,44.6"/>
			<path id="Fill-439" class="st2" d="M12.7,66.1C12.7,66.1,12.7,66.1,12.7,66.1c-0.2-0.5-0.4-0.9-0.5-1.4c0,0,0-0.1,0-0.1
				c-0.1-0.4-0.3-0.9-0.4-1.4c0-0.1,0-0.1-0.1-0.2c-0.1-0.3-0.2-0.7-0.3-1C10.6,62,9.8,61.8,9,61.7c1,3.8,2.8,7.3,5.5,10
				c0.8,0.4,1.5,0.7,2.3,1C15,70.9,13.7,68.6,12.7,66.1"/>
			<path id="Fill-440" class="st2" d="M10.8,58.7c0-0.1,0-0.2,0-0.3c0-0.3-0.1-0.6-0.1-1c0-0.1,0-0.3,0-0.4c0-0.4-0.1-0.8-0.1-1.2
				c0-0.1,0-0.1,0-0.2c0,0,0-0.1,0-0.1c0-0.3,0-0.6,0-0.9c0-0.1,0-0.2,0-0.2c0-0.2,0-0.3,0-0.5c-0.9-1.5-1.8-3.1-2.5-4.7
				c-0.2,3.1-0.1,6.2,0.4,9.2c0.4,0.1,0.8,0.1,1.2,0.2C9.9,58.6,10.3,58.7,10.8,58.7"/>
			<path id="Fill-441" class="st2" d="M9.4,58.6c-0.4,0-0.8-0.1-1.2-0.2c0,0,0,0,0,0c0.8,0.1,1.7,0.2,2.5,0.3v0
				C10.3,58.7,9.9,58.6,9.4,58.6"/>
			<path id="Fill-442" class="st2" d="M10.3,48.9c0.1,0.2,0.2,0.3,0.3,0.5c0,0,0,0,0,0C10.5,49.2,10.4,49,10.3,48.9"/>
			<path id="Fill-443" class="st2" d="M24.9,15.5c0.2-0.2,0.3-0.4,0.5-0.6c0.1-0.2,0.3-0.3,0.4-0.5c0.2-0.3,0.5-0.5,0.7-0.8
				c0.1-0.1,0.2-0.3,0.4-0.4c0.3-0.3,0.5-0.6,0.8-0.8c0.1-0.1,0.2-0.2,0.3-0.3c0.3-0.3,0.6-0.6,0.9-0.8c0.1-0.1,0.2-0.2,0.4-0.3
				c0.3-0.3,0.6-0.5,0.8-0.8c0.2-0.1,0.3-0.3,0.5-0.4c0.3-0.2,0.5-0.4,0.8-0.6C31.4,9.1,31.5,9,31.6,9c0.2-0.2,0.5-0.4,0.7-0.6
				c0,0,0,0,0.1-0.1c0.1-0.1,0.3-0.2,0.4-0.3c0,0,0,0,0,0c1.9-1.4,4-2.7,6.2-3.7c0.1,0,0.2-0.1,0.3-0.1c0.1-0.1,0.2-0.1,0.4-0.2
				c0.2-0.1,0.4-0.1,0.5-0.2c0.1,0,0.1,0,0.2-0.1c0.2-0.1,0.4-0.2,0.6-0.2c0,0,0,0,0.1,0c2.7-0.9,5.4-1.5,8.1-1.3c0,0,0,0,0,0
				c0.2,0,0.5,0,0.7,0.1c0,0,0,0,0.1,0c0.2,0,0.4,0,0.7,0.1c0,0,0.1,0,0.1,0c0.2,0,0.4,0.1,0.6,0.1c0.1,0,0.1,0,0.2,0
				c0.2,0,0.4,0.1,0.5,0.1c0.1,0,0.2,0,0.3,0.1c0.2,0,0.3,0.1,0.5,0.1c0.1,0,0.2,0.1,0.3,0.1c0.1,0,0.3,0.1,0.4,0.1
				c0.2,0.1,0.3,0.1,0.5,0.2c0.1,0,0.2,0.1,0.3,0.1c0.2,0.1,0.5,0.2,0.7,0.3c-2.7-1.3-5.3-2.5-8.4-2.6c-8.4-0.5-16.4,4.8-22.2,10.8
				c-1.3,1.3-2.5,2.7-3.6,4.1C22.3,15.7,23.6,15.6,24.9,15.5C24.9,15.5,24.9,15.5,24.9,15.5"/>
			<path id="Fill-444" class="st2" d="M10.7,47.8c0-0.3,0.1-0.6,0.1-0.9c0-0.3,0.1-0.5,0.1-0.8c0-0.2,0.1-0.4,0.1-0.6
				c0.1-0.4,0.1-0.7,0.2-1.1c0,0,0,0,0,0c0.8-4.2,2-8.3,3.6-12.3c0-0.1,0.1-0.1,0.1-0.2c0.1-0.1,0.1-0.3,0.2-0.4
				c-0.2-0.3-0.4-0.6-0.5-0.9c-0.4-0.7-0.8-1.5-1.2-2.2c-1,2.2-1.9,4.5-2.7,6.8c-1,3-1.8,6.1-2.3,9.3c0.6,1.6,1.4,3.2,2.2,4.8
				c0-0.3,0.1-0.7,0.1-1C10.7,48.2,10.7,48,10.7,47.8"/>
			<path id="Fill-445" class="st2" d="M17,27.4c0.1-0.1,0.1-0.2,0.2-0.4c0-0.1,0.1-0.1,0.1-0.2c1.4-2.7,3-5.3,4.8-7.8
				c-1.3,0.1-2.6,0.3-3.8,0.6c-1,1.5-2,3.1-2.9,4.7C15.9,25.4,16.4,26.4,17,27.4"/>
			<path id="Fill-446" class="st2" d="M14.6,71.8c0.7,0.4,1.5,0.7,2.3,1c0,0,0,0,0,0C16.1,72.5,15.3,72.2,14.6,71.8"/>
			<path id="Fill-447" class="st2" d="M15.1,31.5c0.1-0.2,0.2-0.5,0.3-0.7c0.1-0.1,0.1-0.2,0.1-0.3c0-0.1,0.1-0.1,0.1-0.2
				c0.1-0.3,0.2-0.5,0.4-0.8c0.1-0.3,0.3-0.6,0.4-0.9c0-0.1,0.1-0.1,0.1-0.2c0-0.1,0.1-0.2,0.1-0.3c0.1-0.2,0.2-0.5,0.4-0.7
				c-0.6-1-1.1-2.1-1.6-3c-0.7,1.3-1.4,2.7-2,4c0.4,0.7,0.8,1.4,1.2,2.2C14.7,30.9,14.9,31.2,15.1,31.5"/>
			<path id="Fill-448" class="st2" d="M17,27.4c-0.6-1-1.1-2.1-1.6-3c0,0,0,0,0,0C15.8,25.4,16.4,26.4,17,27.4
				C17,27.4,17,27.4,17,27.4"/>
			<path id="Fill-449" class="st2" d="M16.9,72.8c-0.8-0.3-1.6-0.6-2.3-1c0,0,0,0,0,0c0.1,0.1,0.1,0.2,0.2,0.2
				c1,0.9,2.1,1.7,3.3,2.3c0.4,0.2,0.8,0.3,1.2,0.5C18.5,74.2,17.7,73.5,16.9,72.8"/>
			<path id="Fill-450" class="st2" d="M14.6,71.8c0.7,0.4,1.5,0.7,2.3,0.9c0,0,0,0,0-0.1C16,72.5,15.3,72.1,14.6,71.8
				C14.5,71.8,14.6,71.8,14.6,71.8C14.6,71.8,14.6,71.8,14.6,71.8"/>
			<path id="Fill-451" class="st2" d="M14.6,71.8C14.6,71.8,14.6,71.8,14.6,71.8C14.6,71.8,14.6,71.8,14.6,71.8
				C14.6,71.8,14.6,71.8,14.6,71.8"/>
			<path id="Fill-452" class="st2" d="M11.3,61.8c0-0.1,0-0.2-0.1-0.3c-0.1-0.4-0.2-0.7-0.2-1.1c0-0.2-0.1-0.3-0.1-0.5
				c-0.1-0.3-0.1-0.6-0.1-0.9c0-0.1,0-0.2,0-0.3c-0.8-0.1-1.6-0.2-2.5-0.3c0.2,0.9,0.3,1.9,0.6,2.8c0,0.1,0.1,0.3,0.1,0.4
				c0.8,0.2,1.6,0.3,2.4,0.4C11.4,62,11.3,61.9,11.3,61.8"/>
			<path id="Fill-453" class="st2" d="M10.8,58.7c-0.4,0-0.9-0.1-1.3-0.1C9.9,58.6,10.3,58.7,10.8,58.7
				C10.8,58.7,10.8,58.7,10.8,58.7"/>
			<path id="Fill-454" class="st2" d="M9.4,58.6c-0.4-0.1-0.8-0.1-1.2-0.2c0,0,0,0,0,0C8.7,58.5,9.1,58.5,9.4,58.6"/>
			<path id="Fill-455" class="st2" d="M22,19.1c0.7-0.9,1.4-1.9,2.1-2.7c0.1-0.1,0.1-0.1,0.2-0.2c0.2-0.2,0.4-0.5,0.6-0.7
				c-1.3,0.1-2.6,0.2-3.9,0.4c-1,1.2-1.9,2.5-2.8,3.8C19.5,19.4,20.8,19.2,22,19.1"/>
			<path id="Fill-456" class="st2" d="M10.8,58.7c-0.1-1-0.2-2-0.3-3.1c0-0.6-0.1-1.1-0.1-1.7c0,0,0,0,0,0c0,0.2,0,0.3,0,0.5
				c0,0.4,0,0.8,0,1.2c0,0.1,0,0.2,0,0.3c0,0.4,0.1,0.8,0.1,1.2c0,0.1,0,0.3,0,0.4c0,0.3,0.1,0.6,0.1,1
				C10.7,58.5,10.7,58.6,10.8,58.7C10.8,58.7,10.8,58.7,10.8,58.7"/>
			<path id="Fill-457" class="st2" d="M54.1,3.2C54,3.1,53.8,3.1,53.7,3c-0.1,0-0.3-0.1-0.4-0.1c-0.1,0-0.2-0.1-0.3-0.1
				c-0.2,0-0.3-0.1-0.5-0.1c-0.1,0-0.2,0-0.3-0.1c-0.2,0-0.4-0.1-0.5-0.1c-0.1,0-0.1,0-0.2,0c-0.2,0-0.4-0.1-0.6-0.1
				c0,0-0.1,0-0.1,0c-0.2,0-0.4-0.1-0.7-0.1c0,0,0,0-0.1,0c-0.2,0-0.5,0-0.7-0.1c0,0,0,0,0,0c-2.7-0.1-5.5,0.4-8.1,1.3
				c0,0,0,0-0.1,0c-0.2,0.1-0.4,0.2-0.6,0.2c-0.1,0-0.1,0-0.2,0.1C40.1,3.9,39.9,4,39.8,4c-0.1,0.1-0.2,0.1-0.4,0.2
				c-0.1,0-0.2,0.1-0.3,0.1c-2.2,1-4.3,2.3-6.2,3.7c0,0,0,0,0,0c-0.2,0.1-0.3,0.3-0.5,0.4c-0.3,0.2-0.6,0.5-0.9,0.7
				c-0.3,0.2-0.5,0.4-0.8,0.6c-0.2,0.1-0.3,0.3-0.5,0.4c-0.3,0.2-0.6,0.5-0.8,0.8c-0.1,0.1-0.2,0.2-0.4,0.3
				c-0.3,0.3-0.6,0.5-0.9,0.8c-0.1,0.1-0.2,0.2-0.3,0.3c-0.3,0.3-0.5,0.6-0.8,0.8c-0.1,0.1-0.2,0.2-0.4,0.4
				c-0.2,0.2-0.5,0.5-0.7,0.8c-0.1,0.2-0.3,0.3-0.4,0.5c-0.2,0.2-0.3,0.4-0.5,0.6c0,0,0,0,0,0c0,0,0,0,0,0c2-2.4,4.2-4.6,6.7-6.5
				c6.6-5.3,15.6-8.9,23.6-5.4c-0.2-0.1-0.5-0.2-0.7-0.3C54.3,3.3,54.2,3.2,54.1,3.2"/>
			<path id="Fill-458" class="st2" d="M10.8,58.7L10.8,58.7C10.8,58.7,10.8,58.7,10.8,58.7L10.8,58.7C10.8,58.7,10.8,58.7,10.8,58.7
				"/>
			<path id="Fill-459" class="st2" d="M20,75.2C20,75.2,20,75.2,20,75.2c0.5,0.3,0.9,0.5,1.3,0.7c0.1,0.1,0.2,0.1,0.3,0.2
				c-0.7-0.3-1.4-0.8-2.1-1.2c0,0-0.1,0-0.1,0C19.6,75,19.8,75.1,20,75.2"/>
			<path id="Fill-460" class="st2" d="M10.6,49.4C10.6,49.4,10.6,49.4,10.6,49.4C10.6,49.4,10.6,49.4,10.6,49.4L10.6,49.4
				C10.6,49.4,10.6,49.4,10.6,49.4"/>
			<path id="Fill-461" class="st2" d="M16.9,72.8C16.9,72.8,16.9,72.8,16.9,72.8c0.1,0,0.1,0,0.1,0.1C17,72.8,17,72.8,16.9,72.8
				C17,72.8,17,72.8,16.9,72.8"/>
			<path id="Fill-462" class="st2" d="M17.2,27.1c-0.1,0.1-0.1,0.3-0.2,0.4c0,0,0,0,0,0c1.5-2.9,3.2-5.7,5.1-8.4c0,0,0,0,0,0
				c-1.8,2.5-3.4,5.1-4.8,7.8C17.2,27,17.2,27,17.2,27.1"/>
			<path id="Fill-463" class="st2" d="M15.1,31.5c-0.1,0.1-0.1,0.3-0.2,0.4c0,0.1-0.1,0.1-0.1,0.2c-1.6,3.9-2.9,8.1-3.6,12.3
				c0,0,0,0,0,0c-0.1,0.4-0.1,0.7-0.2,1.1c0,0.2-0.1,0.4-0.1,0.6c0,0.3-0.1,0.5-0.1,0.8c0,0.3-0.1,0.6-0.1,0.9c0,0.2,0,0.4-0.1,0.6
				c0,0.3-0.1,0.7-0.1,1c0,0,0,0,0,0C11.1,43.3,12.7,37.2,15.1,31.5C15.1,31.5,15.1,31.5,15.1,31.5"/>
			<path id="Fill-464" class="st2" d="M16.9,72.7C16.9,72.7,16.9,72.7,16.9,72.7c-2.7-2.8-4.5-6.6-5.4-10.7c0,0,0,0,0,0
				c0.1,0.3,0.2,0.7,0.3,1c0,0.1,0,0.1,0.1,0.2c0.1,0.5,0.3,0.9,0.4,1.4c0,0,0,0.1,0,0.1c0.2,0.5,0.3,0.9,0.5,1.4c0,0,0,0,0,0
				C13.7,68.6,15.1,70.9,16.9,72.7"/>
			<path id="Fill-465" class="st2" d="M15.1,31.5c0.1-0.4,0.3-0.7,0.4-1c0.5-1,0.9-2,1.4-3c0,0,0,0,0,0c-0.1,0.2-0.2,0.5-0.4,0.7
				c-0.1,0.2-0.2,0.3-0.2,0.5c-0.1,0.3-0.3,0.6-0.4,0.9c-0.1,0.3-0.3,0.5-0.4,0.8c-0.1,0.2-0.2,0.4-0.2,0.5
				C15.3,31.1,15.2,31.3,15.1,31.5C15.1,31.5,15.1,31.5,15.1,31.5"/>
			<path id="Fill-466" class="st2" d="M17,27.5C17,27.5,17,27.5,17,27.5C17,27.4,17,27.4,17,27.5C17,27.4,17,27.4,17,27.5
				C17,27.5,17,27.5,17,27.5"/>
			<path id="Fill-467" class="st2" d="M16.9,72.8c0.7,0.8,1.6,1.4,2.5,2c0,0,0.1,0,0.1,0C18.6,74.3,17.8,73.6,16.9,72.8
				C17,72.8,17,72.8,16.9,72.8"/>
			<path id="Fill-468" class="st2" d="M16.9,72.7C16.9,72.7,16.9,72.8,16.9,72.7c0.1,0.1,0.1,0.1,0.1,0.1C17,72.8,17,72.8,16.9,72.7
				C16.9,72.7,16.9,72.7,16.9,72.7"/>
			<path id="Fill-469" class="st2" d="M11.4,62.1c-0.3-1.1-0.5-2.2-0.6-3.4c0,0,0,0,0,0c0,0.1,0,0.2,0,0.3c0,0.3,0.1,0.6,0.1,0.9
				c0,0.2,0.1,0.3,0.1,0.5c0.1,0.4,0.1,0.7,0.2,1.1c0,0.1,0,0.2,0.1,0.3C11.3,61.9,11.4,62,11.4,62.1C11.4,62.1,11.4,62.1,11.4,62.1
				"/>
			<path id="Fill-470" class="st2" d="M10.8,58.7C10.8,58.7,10.8,58.7,10.8,58.7C10.8,58.7,10.8,58.7,10.8,58.7
				C10.8,58.7,10.8,58.7,10.8,58.7C10.8,58.7,10.8,58.7,10.8,58.7"/>
			<path id="Fill-471" class="st2" d="M24.3,16.2c-0.1,0.1-0.1,0.1-0.2,0.2c-0.7,0.9-1.4,1.8-2.1,2.7c0,0,0,0,0,0
				c0.9-1.2,1.8-2.5,2.8-3.6c0,0,0,0,0,0C24.7,15.7,24.5,15.9,24.3,16.2"/>
			<path id="Fill-472" class="st2" d="M41.1,3.5C41.1,3.5,41.1,3.5,41.1,3.5C41.1,3.5,41.1,3.5,41.1,3.5"/>
			<path id="Fill-473" class="st2" d="M12.7,66.1c-0.2-0.5-0.4-0.9-0.5-1.4C12.3,65.2,12.5,65.6,12.7,66.1"/>
			<path id="Fill-474" class="st2" d="M40.3,3.8c0.1,0,0.1,0,0.2-0.1C40.4,3.8,40.3,3.8,40.3,3.8"/>
			<path id="Fill-475" class="st2" d="M50,2.2C50.1,2.2,50.1,2.2,50,2.2C50.1,2.2,50.1,2.2,50,2.2"/>
			<path id="Fill-476" class="st2" d="M51.5,2.4c0.1,0,0.1,0,0.2,0C51.6,2.5,51.6,2.5,51.5,2.4"/>
			<path id="Fill-477" class="st2" d="M49.3,2.2C49.3,2.2,49.3,2.2,49.3,2.2C49.3,2.2,49.3,2.2,49.3,2.2"/>
			<path id="Fill-478" class="st2" d="M50.8,2.3c0,0,0.1,0,0.1,0C50.8,2.3,50.8,2.3,50.8,2.3"/>
			<path id="Fill-479" class="st2" d="M39.4,4.2c0.1-0.1,0.2-0.1,0.4-0.2C39.6,4.1,39.5,4.1,39.4,4.2"/>
			<path id="Fill-480" class="st2" d="M10.6,48.3c0-0.2,0-0.4,0.1-0.6C10.7,48,10.7,48.2,10.6,48.3"/>
			<path id="Fill-481" class="st2" d="M12.1,64.6c-0.2-0.4-0.3-0.9-0.4-1.4C11.8,63.7,12,64.1,12.1,64.6"/>
			<path id="Fill-482" class="st2" d="M26.9,13.2c0.3-0.3,0.5-0.6,0.8-0.8C27.4,12.7,27.2,13,26.9,13.2"/>
			<path id="Fill-483" class="st2" d="M25.8,14.4c0.2-0.3,0.5-0.5,0.7-0.8C26.3,13.9,26.1,14.1,25.8,14.4"/>
			<path id="Fill-484" class="st2" d="M55.2,3.6c-0.2-0.1-0.5-0.2-0.7-0.3C54.7,3.4,54.9,3.5,55.2,3.6"/>
			<path id="Fill-485" class="st2" d="M24.9,15.5c0.2-0.2,0.3-0.4,0.5-0.6C25.2,15.1,25.1,15.3,24.9,15.5"/>
			<path id="Fill-486" class="st2" d="M30.6,9.8c0.3-0.2,0.5-0.4,0.8-0.6C31.1,9.3,30.9,9.6,30.6,9.8"/>
			<path id="Fill-487" class="st2" d="M28.1,12.1c0.3-0.3,0.6-0.6,0.9-0.8C28.6,11.5,28.3,11.8,28.1,12.1"/>
			<path id="Fill-488" class="st2" d="M32.4,8.3C32.4,8.4,32.3,8.4,32.4,8.3c0.1-0.1,0.3-0.2,0.4-0.3C32.7,8.1,32.5,8.2,32.4,8.3"/>
			<path id="Fill-489" class="st2" d="M32.8,8c1.9-1.4,4-2.7,6.2-3.7C36.9,5.3,34.8,6.6,32.8,8"/>
			<path id="Fill-490" class="st2" d="M29.3,10.9c0.3-0.3,0.6-0.5,0.8-0.8C29.9,10.4,29.6,10.7,29.3,10.9"/>
			<path id="Fill-491" class="st2" d="M12.7,66.1c1,2.5,2.4,4.8,4.2,6.6c0,0,0,0,0,0C15.1,70.9,13.7,68.6,12.7,66.1"/>
			<path id="Fill-492" class="st2" d="M53,2.8c0.1,0,0.2,0.1,0.3,0.1C53.2,2.9,53.1,2.8,53,2.8"/>
			<path id="Fill-493" class="st2" d="M20,75.2c-0.2-0.1-0.4-0.2-0.6-0.4c0,0,0,0-0.1,0C19.6,74.9,19.8,75.1,20,75.2"/>
			<path id="Fill-494" class="st2" d="M17.2,27.1c0-0.1,0.1-0.1,0.1-0.2C17.2,27,17.2,27,17.2,27.1"/>
			<path id="Fill-495" class="st2" d="M52.2,2.6c0.1,0,0.2,0,0.3,0.1C52.4,2.6,52.3,2.6,52.2,2.6"/>
			<path id="Fill-496" class="st2" d="M16.9,72.8C16.9,72.8,16.9,72.8,16.9,72.8C16.9,72.8,16.9,72.8,16.9,72.8
				C16.9,72.8,16.9,72.8,16.9,72.8C16.9,72.8,16.9,72.8,16.9,72.8"/>
			<path id="Fill-497" class="st2" d="M15.1,31.5c-0.1,0.1-0.1,0.3-0.2,0.4C15,31.8,15,31.7,15.1,31.5
				C15.1,31.5,15.1,31.5,15.1,31.5"/>
			<path id="Fill-498" class="st2" d="M10.4,54.6c0,0.3,0,0.6,0,0.9c0-0.4,0-0.8,0-1.2C10.4,54.5,10.4,54.5,10.4,54.6"/>
			<path id="Fill-499" class="st2" d="M11,45.5c0.1-0.4,0.1-0.7,0.2-1.1C11.1,44.8,11.1,45.1,11,45.5"/>
			<path id="Fill-500" class="st2" d="M10.7,58.4c0-0.3-0.1-0.6-0.1-1C10.6,57.7,10.7,58.1,10.7,58.4"/>
			<path id="Fill-501" class="st2" d="M11.2,44.4c0.8-4.2,2-8.3,3.6-12.3C13.2,36.1,12,40.2,11.2,44.4"/>
			<path id="Fill-502" class="st2" d="M10.6,57c0-0.4-0.1-0.8-0.1-1.2C10.5,56.2,10.5,56.6,10.6,57"/>
			<path id="Fill-503" class="st2" d="M21.3,75.9c-0.4-0.2-0.8-0.4-1.2-0.6C20.4,75.5,20.8,75.7,21.3,75.9"/>
			<path id="Fill-504" class="st2" d="M10.8,46.8c0-0.3,0.1-0.5,0.1-0.8C10.9,46.3,10.9,46.6,10.8,46.8"/>
			<path id="Fill-505" class="st2" d="M53.7,3c0.2,0.1,0.3,0.1,0.5,0.2C54,3.1,53.8,3.1,53.7,3"/>
			<path id="Fill-506" class="st2" d="M11.4,62.1c0.1,0.3,0.2,0.7,0.3,1C11.6,62.7,11.5,62.4,11.4,62.1
				C11.4,62.1,11.4,62.1,11.4,62.1"/>
			<path id="Fill-507" class="st2" d="M16.5,28.5c0,0.1-0.1,0.1-0.1,0.2c0.1-0.2,0.1-0.3,0.2-0.5C16.6,28.3,16.5,28.4,16.5,28.5"/>
			<path id="Fill-508" class="st2" d="M15.6,30.3c0.1-0.3,0.2-0.5,0.4-0.8C15.9,29.8,15.7,30,15.6,30.3"/>
			<path id="Fill-509" class="st2" d="M15.4,30.8c-0.1,0.2-0.2,0.5-0.3,0.7c0,0,0,0,0,0C15.2,31.3,15.3,31.1,15.4,30.8"/>
			<path id="Fill-510" class="st2" d="M19.4,74.8C19.4,74.8,19.4,74.8,19.4,74.8c-0.8-0.6-1.7-1.3-2.4-2c0,0,0,0,0,0
				C17.7,73.5,18.5,74.2,19.4,74.8"/>
			<path id="Fill-511" class="st2" d="M16.9,72.7C16.9,72.7,16.9,72.7,16.9,72.7C16.9,72.7,16.9,72.7,16.9,72.7
				C16.9,72.8,16.9,72.8,16.9,72.7C16.9,72.8,16.9,72.7,16.9,72.7"/>
			<path id="Fill-512" class="st2" d="M11.3,61.8c0,0.1,0,0.2,0.1,0.3c0,0,0,0,0,0C11.4,62,11.3,61.9,11.3,61.8"/>
			<path id="Fill-513" class="st2" d="M11.3,61.5c-0.1-0.4-0.2-0.7-0.2-1.1C11.1,60.8,11.2,61.1,11.3,61.5"/>
			<path id="Fill-514" class="st2" d="M10.9,59.9c-0.1-0.3-0.1-0.6-0.1-0.9C10.8,59.3,10.9,59.6,10.9,59.9"/>
			<path id="Fill-515" class="st2" d="M24.1,16.3c0.1-0.1,0.1-0.1,0.2-0.2C24.2,16.2,24.2,16.3,24.1,16.3"/>
			<path id="Fill-516" class="st2" d="M59.4,73.6c-0.1,0.1-0.2,0.1-0.3,0.2c-0.4,0.2-0.8,0.4-1.2,0.6c0,0,0,0-0.1,0c0,0,0,0-0.1,0
				c-4.8,2.1-10,2.3-15.2,1.3c-1.6-0.3-3.2-0.7-4.7-1.3c-0.9-0.3-1.7-0.6-2.5-1c-0.1,0-0.2-0.1-0.3-0.1c0,0,0,0,0,0
				c-0.9,0.4-1.8,0.7-2.8,1c3.1,1.5,6.4,2.5,9.8,3c4.2,0.6,8.4,0.4,12.3-0.9c2-0.7,3.8-1.8,5.6-2.9c-0.1,0-0.2,0.1-0.3,0.1
				C59.5,73.5,59.5,73.6,59.4,73.6"/>
			<path id="Fill-517" class="st2" d="M12.2,9.8C12.6,9.4,13,9,13.4,8.7c0.1-0.1,0.2-0.1,0.2-0.2c0.4-0.3,0.7-0.6,1.1-0.9
				c-1.2,0.9-2.5,1.8-3.7,2.8c-0.3,0.3-0.6,0.6-0.9,0.9l2.5-2.1C12.5,9.4,12.4,9.6,12.2,9.8"/>
			<path id="Fill-518" class="st2" d="M10.4,52.8c0-0.4,0-0.8,0-1.2C10.4,52,10.4,52.4,10.4,52.8"/>
			<path id="Fill-519" class="st2" d="M8.2,44.2c-0.1-0.2-0.1-0.3-0.2-0.5c-0.1-0.4-0.3-0.8-0.4-1.1c0-0.1-0.1-0.2-0.1-0.3
				c-0.1-0.4-0.3-0.9-0.4-1.3c0-0.1,0-0.2-0.1-0.2c-0.1-0.5-0.3-0.9-0.4-1.4c0-0.1,0-0.1,0-0.2c-0.1-0.5-0.2-1-0.4-1.4
				c0-0.1,0-0.1,0-0.2C6.1,37,6,36.5,5.9,36.1c0-0.1,0-0.3-0.1-0.4c-0.1-0.4-0.1-0.8-0.2-1.2c0,0,0-0.1,0-0.1c0-0.2,0-0.4-0.1-0.6
				c0-0.3-0.1-0.6-0.1-0.9c0-0.2,0-0.4-0.1-0.7c0-0.3-0.1-0.7-0.1-1c0-0.1,0-0.2,0-0.4c0-0.4,0-0.7-0.1-1.1c0-1.1,0-2.3,0.1-3.4
				c0-0.2,0-0.3,0-0.5c0-0.3,0.1-0.7,0.1-1c0-0.2,0.1-0.4,0.1-0.7c-0.7,0.4-1.3,0.9-1.9,1.4C3,31,3.6,36.7,5.2,42
				c0.7,2.4,1.6,4.8,2.7,7.1c0.1-1.5,0.3-3.1,0.5-4.6C8.3,44.4,8.3,44.3,8.2,44.2"/>
			<path id="Fill-520" class="st2" d="M31.2,71.8C31.2,71.8,31.2,71.8,31.2,71.8C31.2,71.8,31.2,71.8,31.2,71.8"/>
			<path id="Fill-521" class="st2" d="M10.4,51.1c0-0.4,0-0.8,0.1-1.2C10.5,50.3,10.5,50.7,10.4,51.1"/>
			<path id="Fill-522" class="st2" d="M8.6,14.6c0-0.4,0-0.7,0.1-1c0.1-0.4,0.2-0.8,0.4-1.1C7.9,14,6.9,15.6,6,17.4
				c-0.7,1.6-1.3,3.2-1.7,4.8c0.6-0.5,1.2-1,1.9-1.4C6.8,18.7,7.6,16.6,8.6,14.6"/>
			<path id="Fill-523" class="st2" d="M10.4,53.3c0,0.2,0,0.4,0,0.6c0,0,0,0,0,0C10.4,53.7,10.4,53.5,10.4,53.3"/>
			<path id="Fill-524" class="st2" d="M16.6,58.7C16.6,58.7,16.6,58.7,16.6,58.7C16.6,58.7,16.6,58.7,16.6,58.7c-0.1,0-0.1,0-0.1,0
				c-0.1,0-0.1,0-0.2,0c-0.6,0-1.2,0.1-1.8,0.1C15.2,58.8,15.9,58.8,16.6,58.7"/>
			<path id="Fill-525" class="st2" d="M28.9,72.5c0.5-0.1,1.1-0.3,1.6-0.5C30,72.2,29.5,72.3,28.9,72.5
				C28.9,72.5,28.9,72.5,28.9,72.5"/>
			<path id="Fill-526" class="st2" d="M30.6,71c-0.4-0.2-0.8-0.5-1.2-0.7c-0.1,0-0.2-0.1-0.2-0.1c-0.4-0.2-0.7-0.5-1.1-0.7
				c-0.1-0.1-0.2-0.2-0.4-0.2c-0.3-0.2-0.6-0.4-0.9-0.6c-0.2-0.1-0.4-0.3-0.5-0.4c-0.2-0.2-0.4-0.3-0.6-0.5
				c-0.2-0.2-0.5-0.4-0.7-0.6c-0.1-0.1-0.3-0.2-0.4-0.3c-0.3-0.3-0.6-0.5-0.9-0.8c-0.1-0.1-0.1-0.1-0.2-0.2c-1.4-1.2-2.7-2.5-4-3.8
				c-1,0.1-2,0.2-3,0.2c0.9,1.1,1.9,2.1,2.9,3.1c2.8,2.7,6,5.2,9.5,7.2c0.9-0.3,1.9-0.6,2.8-0.9c-0.3-0.2-0.6-0.3-0.8-0.5
				C30.8,71.1,30.7,71,30.6,71"/>
			<path id="Fill-527" class="st2" d="M10.6,49.4C10.5,49.4,10.5,49.4,10.6,49.4C10.5,49.4,10.6,49.4,10.6,49.4
				C10.6,49.4,10.6,49.4,10.6,49.4"/>
			<path id="Fill-528" class="st2" d="M16.3,58.8c0.1,0,0.1,0,0.2,0c0,0,0.1,0,0.1,0c-1-1.3-2-2.6-2.9-4c-0.3-0.5-0.6-1-0.9-1.5
				c-0.1-0.1-0.1-0.2-0.2-0.3c-0.2-0.4-0.4-0.7-0.6-1.1c-0.1-0.2-0.2-0.4-0.4-0.6c-0.2-0.3-0.3-0.5-0.5-0.8
				c-0.1-0.3-0.3-0.5-0.4-0.8c0-0.1-0.1-0.1-0.1-0.2c-0.1,1.5-0.2,3-0.1,4.5c1,1.7,2.1,3.3,3.3,4.9C14.6,58.8,15.4,58.8,16.3,58.8"
				/>
			<path id="Fill-529" class="st2" d="M8.6,14.6c0.8-1.4,1.7-2.7,2.8-3.9c0.2-0.3,0.5-0.5,0.7-0.8c0.2-0.2,0.3-0.5,0.6-0.7l-2.5,2.1
				c-0.4,0.4-0.7,0.8-1.1,1.2c-0.2,0.3-0.3,0.7-0.4,1.1C8.7,13.9,8.7,14.2,8.6,14.6"/>
			<path id="Fill-530" class="st2" d="M60.6,72.9c-0.1,0-0.2,0.1-0.2,0.1c-0.3,0.2-0.5,0.3-0.8,0.5c0.1,0,0.2-0.1,0.3-0.1
				c0.6-0.4,1.2-0.8,1.7-1.2C61.3,72.4,61,72.7,60.6,72.9"/>
			<path id="Fill-531" class="st2" d="M12.2,9.8c0.1-0.2,0.3-0.4,0.5-0.6C12.5,9.4,12.3,9.6,12.2,9.8C12.2,9.8,12.2,9.8,12.2,9.8"/>
			<path id="Fill-532" class="st2" d="M33.9,72.8c-0.1,0-0.2-0.1-0.3-0.1c0,0-0.1,0-0.1,0c-0.4-0.2-0.8-0.4-1.3-0.6
				c-0.1,0-0.1-0.1-0.2-0.1c-0.1-0.1-0.3-0.2-0.4-0.2c-0.2,0.1-0.3,0.1-0.5,0.2c0,0,0,0,0,0c-0.2,0.1-0.4,0.1-0.6,0.2
				c-0.5,0.2-1.1,0.3-1.6,0.5c1.1,0.6,2.2,1.2,3.4,1.8c0.9-0.3,1.9-0.6,2.8-1C34.7,73.1,34.3,72.9,33.9,72.8"/>
			<path id="Fill-533" class="st2" d="M31.7,71.6c-0.9,0.3-1.8,0.6-2.8,0.9c0,0,0,0,0,0c0.5-0.1,1.1-0.3,1.6-0.5
				c0.2-0.1,0.4-0.1,0.6-0.2c0,0,0,0,0,0C31.3,71.7,31.5,71.7,31.7,71.6C31.7,71.6,31.7,71.6,31.7,71.6"/>
			<path id="Fill-534" class="st2" d="M31.2,71.8c-0.2,0.1-0.4,0.1-0.6,0.2C30.7,71.9,30.9,71.9,31.2,71.8"/>
			<path id="Fill-535" class="st2" d="M31.2,71.8c0.2-0.1,0.3-0.1,0.5-0.2c0,0,0,0,0,0C31.5,71.7,31.3,71.7,31.2,71.8"/>
			<path id="Fill-536" class="st2" d="M14.5,58.8c-0.3,0-0.5,0-0.8,0c0.9,1.2,1.8,2.3,2.8,3.4c1,0,2-0.1,3-0.2
				c-1-1.1-1.9-2.1-2.8-3.3C15.9,58.8,15.2,58.8,14.5,58.8"/>
			<path id="Fill-537" class="st2" d="M16.3,58.8c0.1,0,0.1,0,0.2,0C16.4,58.8,16.4,58.8,16.3,58.8"/>
			<path id="Fill-538" class="st2" d="M16.6,58.7C16.6,58.7,16.6,58.7,16.6,58.7c0,0-0.1,0-0.1,0C16.5,58.7,16.6,58.7,16.6,58.7
				C16.6,58.7,16.6,58.7,16.6,58.7"/>
			<path id="Fill-539" class="st2" d="M16.3,58.8c-0.9,0-1.7,0.1-2.6,0.1c0,0,0,0,0,0c0.3,0,0.5,0,0.8,0
				C15.1,58.8,15.7,58.8,16.3,58.8"/>
			<path id="Fill-540" class="st2" d="M13.7,58.8C13.7,58.8,13.7,58.8,13.7,58.8c0.3,0,0.5,0,0.8,0C14.2,58.8,14,58.8,13.7,58.8"/>
			<path id="Fill-541" class="st2" d="M6.2,20.9c-0.7,0.4-1.3,0.9-1.9,1.4c-0.3,1.1-0.5,2.2-0.6,3.4c0.6-0.5,1.2-0.9,1.9-1.4
				C5.7,23.1,5.9,22,6.2,20.9"/>
			<path id="Fill-542" class="st2" d="M10.4,53.3c0-0.2,0-0.4,0-0.6c0-0.4,0-0.8,0-1.2c0-0.2,0-0.3,0-0.5c0-0.4,0-0.8,0.1-1.2
				c0-0.2,0-0.3,0-0.5c0,0,0-0.1,0-0.1c-0.1-0.2-0.2-0.3-0.3-0.5c-0.1-0.3-0.2-0.5-0.4-0.8c-0.1-0.3-0.2-0.5-0.4-0.8
				c-0.1-0.2-0.2-0.5-0.3-0.7c-0.1-0.3-0.3-0.6-0.4-0.9c-0.1-0.2-0.2-0.4-0.2-0.6c-0.1-0.2-0.2-0.4-0.2-0.6
				c-0.2,1.5-0.4,3.1-0.5,4.6c0.8,1.6,1.6,3.2,2.5,4.7C10.4,53.7,10.4,53.5,10.4,53.3"/>
			<path id="Fill-543" class="st2" d="M10.4,53.9c0-1.5,0-3,0.1-4.5c0,0,0,0,0,0c0,0,0,0.1,0,0.1c0,0.2,0,0.3,0,0.5
				c0,0.4-0.1,0.8-0.1,1.2c0,0.2,0,0.3,0,0.5c0,0.4,0,0.8,0,1.2c0,0.2,0,0.4,0,0.6C10.4,53.5,10.4,53.7,10.4,53.9
				C10.4,53.9,10.4,53.9,10.4,53.9"/>
			<path id="Fill-544" class="st2" d="M10.5,49.9c0-0.2,0-0.3,0-0.5C10.5,49.6,10.5,49.8,10.5,49.9"/>
			<path id="Fill-545" class="st2" d="M10.4,53.3c0-0.2,0-0.4,0-0.6C10.4,52.9,10.4,53.1,10.4,53.3"/>
			<path id="Fill-546" class="st2" d="M10.4,51.6c0-0.2,0-0.3,0-0.5C10.4,51.3,10.4,51.4,10.4,51.6"/>
			<path id="Fill-547" class="st2" d="M10.6,49.3C10.6,49.3,10.6,49.4,10.6,49.3C10.6,49.4,10.6,49.4,10.6,49.3
				C10.6,49.4,10.6,49.3,10.6,49.3C10.6,49.3,10.6,49.3,10.6,49.3"/>
			<path id="Fill-548" class="st2" d="M16.6,58.7C16.6,58.7,16.6,58.7,16.6,58.7C16.6,58.7,16.6,58.7,16.6,58.7
				C16.6,58.7,16.6,58.7,16.6,58.7C16.6,58.7,16.6,58.7,16.6,58.7"/>
			<path id="Fill-549" class="st2" d="M19.5,62C19.5,62,19.5,62,19.5,62c1.2,1.4,2.6,2.6,4,3.8c0.1,0.1,0.1,0.1,0.2,0.2
				c0.3,0.3,0.6,0.5,0.9,0.8c0.1,0.1,0.3,0.2,0.4,0.3c0.2,0.2,0.5,0.4,0.7,0.6c0.2,0.2,0.4,0.3,0.6,0.5c0.2,0.1,0.4,0.3,0.5,0.4
				c0.3,0.2,0.6,0.4,0.9,0.6c0.1,0.1,0.2,0.2,0.4,0.2c0.4,0.2,0.7,0.5,1.1,0.7c0.1,0,0.2,0.1,0.2,0.1c0.4,0.3,0.8,0.5,1.2,0.7
				c0.1,0,0.1,0.1,0.2,0.1c0.3,0.2,0.6,0.3,0.9,0.5c0,0,0,0,0,0C27.2,69.1,23.1,65.8,19.5,62"/>
			<path id="Fill-550" class="st2" d="M16.6,58.7c-1-1.3-2-2.6-2.9-4c-1.1-1.7-2.2-3.5-3.1-5.3c0,0,0,0,0,0c0,0.1,0.1,0.1,0.1,0.2
				c0.1,0.3,0.3,0.5,0.4,0.8c0.1,0.3,0.3,0.5,0.5,0.8c0.1,0.2,0.2,0.4,0.4,0.6c0.2,0.4,0.4,0.7,0.6,1.1c0.1,0.1,0.1,0.2,0.2,0.3
				C13.9,55.2,15.2,57,16.6,58.7C16.6,58.7,16.6,58.7,16.6,58.7"/>
			<path id="Fill-551" class="st2" d="M8.4,44.5c-1.8-4.7-3-9.7-3.1-14.8c-0.1-1.9,0.1-3.7,0.3-5.5c0,0,0,0,0,0
				c0,0.2-0.1,0.5-0.1,0.7c0,0.3-0.1,0.7-0.1,1c0,0.2,0,0.3,0,0.5c-0.1,1.5-0.1,3,0,4.5c0,0.1,0,0.2,0,0.4c0,0.3,0.1,0.7,0.1,1
				c0,0.2,0,0.4,0.1,0.7c0,0.3,0.1,0.6,0.1,0.9c0,0.2,0.1,0.5,0.1,0.7c0.1,0.4,0.1,0.8,0.2,1.2c0,0.1,0,0.3,0.1,0.4
				C6,36.5,6.1,37,6.2,37.5c0,0.1,0,0.1,0,0.2c0.1,0.5,0.2,1,0.4,1.4c0,0.1,0,0.1,0,0.2c0.1,0.5,0.3,0.9,0.4,1.4
				c0,0.1,0,0.2,0.1,0.2c0.1,0.4,0.3,0.9,0.4,1.3c0,0.1,0.1,0.2,0.1,0.3c0.1,0.4,0.3,0.8,0.4,1.1c0.1,0.2,0.1,0.3,0.2,0.5
				C8.3,44.3,8.3,44.4,8.4,44.5C8.4,44.5,8.4,44.5,8.4,44.5"/>
			<path id="Fill-552" class="st2" d="M13.4,8.7c-0.4,0.4-0.9,0.8-1.3,1.2c0,0.1-0.1,0.1-0.1,0.2c0.8-0.9,1.7-1.7,2.7-2.5
				c-0.4,0.3-0.8,0.6-1.1,0.9C13.6,8.5,13.5,8.6,13.4,8.7"/>
			<path id="Fill-553" class="st2" d="M35.1,73.2C35,73.2,35,73.2,35.1,73.2C35,73.3,35,73.3,35.1,73.2c0.1,0.1,0.2,0.1,0.3,0.1
				c2.3,1,4.8,1.8,7.2,2.3c5.2,1,10.5,0.8,15.2-1.3c0,0,0,0,0.1,0c0.4-0.2,0.9-0.4,1.3-0.6c0.1,0,0.2-0.1,0.3-0.2
				c0.1,0,0.1-0.1,0.2-0.1c0,0,0,0-0.1,0c-0.5,0.3-1.1,0.6-1.6,0.8C50.8,77.5,42.4,76.4,35.1,73.2"/>
			<path id="Fill-554" class="st2" d="M8.6,14.8C8.6,14.7,8.6,14.7,8.6,14.8c-1,1.8-1.8,3.9-2.4,6.1c0,0,0,0,0,0
				C6.8,18.7,7.6,16.7,8.6,14.8"/>
			<path id="Fill-555" class="st2" d="M8.6,14.8c0.9-1.7,2-3.3,3.4-4.7c0,0,0.1-0.1,0.1-0.1C10.7,11.4,9.6,13,8.6,14.8
				C8.6,14.7,8.6,14.7,8.6,14.8"/>
			<path id="Fill-556" class="st2" d="M60.4,73c0.1,0,0.2-0.1,0.2-0.1c0.1-0.1,0.2-0.1,0.3-0.2c-0.5,0.3-0.9,0.6-1.4,0.8
				c0,0,0,0,0.1,0C59.8,73.4,60.1,73.2,60.4,73"/>
			<path id="Fill-557" class="st2" d="M60.9,72.7c0.3-0.2,0.6-0.4,0.9-0.7C61.6,72.3,61.2,72.5,60.9,72.7"/>
			<path id="Fill-558" class="st2" d="M12.1,10c0,0-0.1,0.1-0.1,0.1C12,10.1,12,10.1,12.1,10C12.1,10,12.1,9.9,12.1,10
				C12.1,9.9,12.1,9.9,12.1,10"/>
			<path id="Fill-559" class="st2" d="M35.1,73.2c-0.5-0.2-0.9-0.4-1.4-0.6c-0.7-0.3-1.3-0.7-1.9-1c0,0,0,0,0,0
				c0.1,0.1,0.3,0.2,0.4,0.2c0.1,0,0.1,0.1,0.2,0.1c0.4,0.2,0.8,0.4,1.3,0.6c0.1,0.1,0.2,0.1,0.4,0.2C34.3,72.9,34.7,73.1,35.1,73.2
				C35,73.2,35,73.2,35.1,73.2"/>
			<path id="Fill-560" class="st2" d="M31.7,71.6C31.7,71.6,31.7,71.6,31.7,71.6C31.7,71.6,31.7,71.6,31.7,71.6
				C31.7,71.6,31.7,71.6,31.7,71.6C31.7,71.6,31.7,71.6,31.7,71.6"/>
			<path id="Fill-561" class="st2" d="M31.7,71.6L31.7,71.6C31.7,71.6,31.7,71.6,31.7,71.6C31.7,71.6,31.7,71.6,31.7,71.6
				C31.7,71.6,31.7,71.6,31.7,71.6"/>
			<path id="Fill-562" class="st2" d="M16.6,58.7C16.6,58.8,16.6,58.8,16.6,58.7c0.9,1.2,1.9,2.2,2.9,3.3c0,0,0,0,0,0
				C18.5,61,17.6,59.9,16.6,58.7C16.6,58.7,16.6,58.7,16.6,58.7"/>
			<path id="Fill-563" class="st2" d="M16.6,58.7C16.6,58.7,16.6,58.7,16.6,58.7C16.6,58.7,16.6,58.7,16.6,58.7
				C16.6,58.7,16.6,58.7,16.6,58.7C16.6,58.7,16.6,58.7,16.6,58.7"/>
			<path id="Fill-564" class="st2" d="M6.2,20.8C6,22,5.7,23.1,5.6,24.2c0,0,0,0,0,0C5.8,23.1,6,21.9,6.2,20.8
				C6.3,20.8,6.3,20.8,6.2,20.8"/>
			<path id="Fill-565" class="st2" d="M10.6,49.3c-0.8-1.6-1.5-3.2-2.2-4.8c0,0,0,0,0,0c0.1,0.2,0.2,0.4,0.2,0.6
				c0.1,0.2,0.2,0.4,0.2,0.6c0.1,0.3,0.2,0.6,0.4,0.9c0.1,0.2,0.2,0.5,0.3,0.7c0.1,0.3,0.2,0.5,0.4,0.8c0.1,0.3,0.2,0.5,0.4,0.8
				C10.4,49,10.5,49.2,10.6,49.3C10.6,49.4,10.6,49.3,10.6,49.3"/>
			<path id="Fill-566" class="st2" d="M10.6,49.4C10.6,49.4,10.6,49.3,10.6,49.4C10.6,49.3,10.6,49.4,10.6,49.4
				C10.6,49.4,10.6,49.4,10.6,49.4C10.6,49.4,10.6,49.4,10.6,49.4"/>
			<path id="Fill-567" class="st2" d="M5.6,24.2c0,0.2-0.1,0.4-0.1,0.7C5.5,24.7,5.6,24.5,5.6,24.2C5.6,24.2,5.6,24.2,5.6,24.2"/>
			<path id="Fill-568" class="st2" d="M5.5,32.9c0-0.2,0-0.4-0.1-0.7C5.4,32.4,5.5,32.7,5.5,32.9"/>
			<path id="Fill-569" class="st2" d="M5.7,34.3c0,0,0,0.1,0,0.1c0-0.2-0.1-0.5-0.1-0.7C5.6,34,5.6,34.1,5.7,34.3"/>
			<path id="Fill-570" class="st2" d="M35,73.3C35,73.3,35,73.3,35,73.3C35,73.3,35,73.3,35,73.3"/>
			<path id="Fill-571" class="st2" d="M5.9,36.1c0-0.1,0-0.3-0.1-0.4C5.9,35.8,5.9,35.9,5.9,36.1"/>
			<path id="Fill-572" class="st2" d="M5.3,31.2c0-0.1,0-0.2,0-0.4C5.3,31,5.3,31.1,5.3,31.2"/>
			<path id="Fill-573" class="st2" d="M5.4,26.4c0-0.2,0-0.3,0-0.5C5.4,26.1,5.4,26.2,5.4,26.4"/>
			<path id="Fill-574" class="st2" d="M13.4,8.7C13,9,12.6,9.4,12.2,9.8c0,0,0,0,0,0.1C12.6,9.5,13,9.1,13.4,8.7"/>
			<path id="Fill-575" class="st2" d="M30.8,71.1c0.3,0.2,0.6,0.3,0.8,0.5c0,0,0,0,0,0C31.4,71.4,31.1,71.3,30.8,71.1"/>
			<path id="Fill-576" class="st2" d="M37.9,74.4c1.5,0.5,3.1,1,4.7,1.3c-2.5-0.5-4.9-1.3-7.2-2.3C36.2,73.7,37,74.1,37.9,74.4"/>
			<path id="Fill-577" class="st2" d="M57.8,74.4C57.8,74.4,57.8,74.4,57.8,74.4C57.8,74.4,57.8,74.4,57.8,74.4"/>
			<path id="Fill-578" class="st2" d="M8.6,14.7C8.6,14.7,8.6,14.6,8.6,14.7c-1.1,1.9-1.9,4-2.4,6.2c0,0,0,0,0,0
				C6.8,18.7,7.6,16.6,8.6,14.7"/>
			<path id="Fill-579" class="st2" d="M59.4,73.6c-0.1,0.1-0.2,0.1-0.3,0.2C59.2,73.7,59.3,73.7,59.4,73.6"/>
			<path id="Fill-580" class="st2" d="M30.6,71c-0.4-0.2-0.8-0.5-1.2-0.7C29.8,70.5,30.2,70.8,30.6,71"/>
			<path id="Fill-581" class="st2" d="M8.2,44.2c-0.1-0.2-0.1-0.3-0.2-0.5C8.1,43.9,8.2,44,8.2,44.2"/>
			<path id="Fill-582" class="st2" d="M11.9,51.8c-0.1-0.2-0.2-0.4-0.4-0.6C11.6,51.4,11.8,51.6,11.9,51.8"/>
			<path id="Fill-583" class="st2" d="M23.7,66c-0.1-0.1-0.1-0.1-0.2-0.2C23.5,65.9,23.6,66,23.7,66"/>
			<path id="Fill-584" class="st2" d="M12.7,53.2c-0.1-0.1-0.1-0.2-0.2-0.3C12.6,53,12.7,53.1,12.7,53.2"/>
			<path id="Fill-585" class="st2" d="M25,67.1c-0.1-0.1-0.3-0.2-0.4-0.3C24.7,66.9,24.8,67,25,67.1"/>
			<path id="Fill-586" class="st2" d="M27.8,69.2c-0.3-0.2-0.6-0.4-0.9-0.6C27.2,68.8,27.5,69,27.8,69.2"/>
			<path id="Fill-587" class="st2" d="M29.2,70.1c-0.4-0.2-0.7-0.5-1.1-0.7C28.5,69.7,28.8,69.9,29.2,70.1"/>
			<path id="Fill-588" class="st2" d="M26.4,68.2c-0.2-0.2-0.4-0.3-0.6-0.5C25.9,67.9,26.1,68,26.4,68.2"/>
			<path id="Fill-589" class="st2" d="M11.1,50.4c-0.1-0.3-0.3-0.5-0.4-0.8C10.8,49.8,10.9,50.1,11.1,50.4"/>
			<path id="Fill-590" class="st2" d="M6.7,39.3c0-0.1,0-0.1,0-0.2C6.6,39.2,6.7,39.2,6.7,39.3"/>
			<path id="Fill-591" class="st2" d="M6.3,37.7c0-0.1,0-0.1,0-0.2C6.2,37.5,6.3,37.6,6.3,37.7"/>
			<path id="Fill-592" class="st2" d="M14.8,7.6c-0.4,0.3-0.8,0.6-1.1,0.9C14,8.2,14.4,7.9,14.8,7.6"/>
			<path id="Fill-593" class="st2" d="M7.1,40.9c0-0.1,0-0.2-0.1-0.2C7.1,40.8,7.1,40.9,7.1,40.9"/>
			<path id="Fill-594" class="st2" d="M7.7,42.6c0-0.1-0.1-0.2-0.1-0.3C7.6,42.3,7.6,42.5,7.7,42.6"/>
			<path id="Fill-595" class="st2" d="M12.1,10C12.1,9.9,12.1,9.9,12.1,10c-0.2,0.2-0.4,0.4-0.7,0.7c-1.1,1.2-2,2.5-2.8,3.9
				c0,0,0,0,0,0.1C9.6,13,10.7,11.4,12.1,10"/>
			<path id="Fill-596" class="st2" d="M60.6,72.9c-0.1,0-0.2,0.1-0.2,0.1C60.5,73,60.6,72.9,60.6,72.9"/>
			<path id="Fill-597" class="st2" d="M12.2,9.9C12.2,9.9,12.2,9.8,12.2,9.9C12.2,9.8,12.2,9.8,12.2,9.9C12.1,9.9,12.1,9.9,12.2,9.9
				C12.1,9.9,12.1,9.9,12.2,9.9"/>
			<path id="Fill-598" class="st2" d="M31.7,71.6c0.1,0.1,0.3,0.2,0.4,0.2C32,71.8,31.8,71.7,31.7,71.6
				C31.7,71.6,31.7,71.6,31.7,71.6"/>
			<path id="Fill-599" class="st2" d="M33.9,72.8c0.4,0.2,0.7,0.3,1.1,0.5C34.7,73.1,34.3,72.9,33.9,72.8"/>
			<path id="Fill-600" class="st2" d="M33.6,72.6c-0.4-0.2-0.8-0.4-1.3-0.6C32.7,72.2,33.1,72.4,33.6,72.6"/>
			<path id="Fill-601" class="st2" d="M31.7,71.6C31.7,71.6,31.7,71.6,31.7,71.6C31.7,71.6,31.7,71.6,31.7,71.6
				C31.7,71.6,31.7,71.6,31.7,71.6C31.7,71.6,31.7,71.6,31.7,71.6"/>
			<path id="Fill-602" class="st2" d="M31.7,71.6C31.7,71.6,31.7,71.6,31.7,71.6C31.7,71.6,31.7,71.6,31.7,71.6
				C31.7,71.6,31.7,71.6,31.7,71.6L31.7,71.6"/>
			<path id="Fill-603" class="st2" d="M6.2,20.8C6.2,20.9,6.2,20.9,6.2,20.8c-0.3,1.1-0.5,2.3-0.7,3.4c0,0,0,0,0,0
				C5.7,23.1,6,22,6.2,20.8"/>
			<path id="Fill-604" class="st2" d="M10.3,48.9c-0.1-0.3-0.2-0.5-0.4-0.8C10,48.3,10.2,48.6,10.3,48.9"/>
			<path id="Fill-605" class="st2" d="M8.9,45.8c-0.1-0.2-0.2-0.4-0.2-0.6C8.7,45.4,8.8,45.6,8.9,45.8"/>
			<path id="Fill-606" class="st2" d="M9.6,47.3c-0.1-0.2-0.2-0.5-0.3-0.7C9.3,46.9,9.4,47.1,9.6,47.3"/>
		</g>
	</g>
</g>
</svg>
